<?xml version="1.0" encoding="UTF-8" standalone="no"?>
<!-- Created with Inkscape (http://www.inkscape.org/) -->

<svg
   width="20mm"
   height="20mm"
   viewBox="0 0 20 20"
   version="1.1"
   id="svg5"
   inkscape:version="1.1.2 (0a00cf5339, 2022-02-04)"
   sodipodi:docname="bubbledet.svg"
   inkscape:export-filename="/home/ppzolg/physics/BubbleDet/code/docs/source/bubbledet_32x32.png"
   inkscape:export-xdpi="83.240105"
   inkscape:export-ydpi="83.240105"
   xmlns:inkscape="http://www.inkscape.org/namespaces/inkscape"
   xmlns:sodipodi="http://sodipodi.sourceforge.net/DTD/sodipodi-0.dtd"
   xmlns="http://www.w3.org/2000/svg"
   xmlns:svg="http://www.w3.org/2000/svg">
  <sodipodi:namedview
     id="namedview7"
     pagecolor="#ffffff"
     bordercolor="#666666"
     borderopacity="1.0"
     inkscape:pageshadow="2"
     inkscape:pageopacity="0.0"
     inkscape:pagecheckerboard="0"
     inkscape:document-units="mm"
     showgrid="false"
     inkscape:zoom="7.5114018"
     inkscape:cx="18.238939"
     inkscape:cy="33.881825"
     inkscape:window-width="1850"
     inkscape:window-height="1016"
     inkscape:window-x="70"
     inkscape:window-y="27"
     inkscape:window-maximized="1"
     inkscape:current-layer="layer1" />
  <defs
     id="defs2" />
  <g
     inkscape:label="Layer 1"
     inkscape:groupmode="layer"
     id="layer1">
    <path
       style="fill:none;stroke:#000000;stroke-width:1.01176;stroke-linecap:butt;stroke-linejoin:miter;stroke-miterlimit:4;stroke-dasharray:none;stroke-opacity:1"
       d="M 2.7444143,16.154965 C 2.0789437,15.370509 3.3010982,14.306438 2.8608502,13.375797 2.420603,12.446009 0.82279339,12.715425 0.63921543,11.702347 0.45478758,10.690118 2.0449479,10.379904 2.1290878,9.3540766 2.2132272,8.3282488 0.69530928,7.7630662 1.0420675,6.7941818 1.3888259,5.8252972 2.9211932,6.3513844 3.5067736,5.5057353 4.0923542,4.6592361 3.0597266,3.4107347 3.8450332,2.7444144 4.6294906,2.0789438 5.6935627,3.3010983 6.6242034,2.8608505 7.5539929,2.4206025 7.2845751,0.823643 8.2976522,0.63921535 9.3098807,0.45478751 9.6200937,2.044948 10.645922,2.1290879 c 1.025831,0.08414 1.59101,-1.4337793 2.559897,-1.0870209 0.968883,0.3467589 0.442795,1.8791266 1.288445,2.4647067 0.846498,0.5855802 2.095001,-0.4461973 2.761321,0.3382595 0.665471,0.7844567 -0.556683,1.8485296 -0.116434,2.7791691 0.439398,0.9297893 2.037207,0.6603713 2.221635,1.6734503 0.184424,1.0122292 -1.405732,1.3224424 -1.49072,2.3482704 -0.08414,1.025828 1.434626,1.59101 1.087867,2.559895 -0.34676,0.968884 -1.879127,0.442797 -2.464706,1.288445 -0.585583,0.846502 0.446195,2.095001 -0.338262,2.76132 -0.784457,0.665472 -1.848528,-0.556683 -2.779168,-0.116433 -0.930638,0.440245 -0.66037,2.037205 -1.673451,2.221635 C 10.690118,19.545209 10.379904,17.95505 9.3540766,17.87091 8.3282497,17.786772 7.7630665,19.304693 6.7941829,18.957934 5.8252972,18.611175 6.351385,17.078806 5.5057355,16.493225 4.6592352,15.907644 3.4098849,16.939422 2.7444143,16.154965 Z m 0,0"
       id="path7" />
    <path
       style="fill:none;stroke:#000000;stroke-width:1.01176;stroke-linecap:butt;stroke-linejoin:miter;stroke-miterlimit:4;stroke-dasharray:none;stroke-opacity:1"
       d="M 5.8712091,13.502494 C 5.4925207,13.056097 6.1879907,12.450585 5.9374505,11.921002 5.6869345,11.391904 4.7776889,11.545216 4.6732258,10.968723 4.5682609,10.392711 5.4731591,10.216183 5.5210421,9.6324343 5.5689283,9.0486852 4.705145,8.7270668 4.9024694,8.1757214 5.0997822,7.6243756 5.9717881,7.9237482 6.3050146,7.4425283 6.6382407,6.9608265 6.0506229,6.2503645 6.4974904,5.8711933 6.9438891,5.4925063 7.5493999,6.1879754 8.0789836,5.9374529 8.6080808,5.6869277 8.4547698,4.7781761 9.0312634,4.6732271 9.6072733,4.5682772 9.7838003,5.473162 10.367552,5.5210418 c 0.583748,0.047881 0.905364,-0.815895 1.456711,-0.6185711 0.551347,0.1973238 0.251959,1.0693205 0.733191,1.4025463 0.481702,0.3332253 1.192164,-0.253911 1.571336,0.1924875 0.378688,0.4463962 -0.31678,1.0519089 -0.06623,1.5814911 0.250035,0.5290984 1.159278,0.3757857 1.264228,0.9522804 0.10494,0.5760106 -0.799937,0.7525384 -0.848301,1.336287 -0.0479,0.58375 0.816378,0.905368 0.619054,1.456713 -0.197314,0.551345 -1.069322,0.251973 -1.402546,0.733193 -0.333225,0.481703 0.253912,1.192164 -0.192477,1.571334 -0.446397,0.378688 -1.051908,-0.316781 -1.58149,-0.06625 -0.529582,0.250522 -0.375784,1.159275 -0.952281,1.264225 -0.576018,0.10494 -0.752548,-0.799934 -1.3362958,-0.847815 -0.5837485,-0.04789 -0.9053671,0.81589 -1.4567129,0.618566 C 7.6243955,14.900206 7.9237501,14.028207 7.4425452,13.694984 6.9608448,13.361756 6.2498973,13.948891 5.871212,13.502494 Z m 0,0"
       id="path7-7" />
  </g>
</svg>
