<?xml version="1.0" encoding="windows-1252" standalone="no"?>
<svg xmlns="http://www.w3.org/2000/svg" xmlns:xlink="http://www.w3.org/1999/xlink" contentStyleType="text/css" height="470px" preserveAspectRatio="none" style="width:1099px;height:470px;background:#FFFFFF;" version="1.1" viewBox="0 0 1099 470" width="1099px" zoomAndPan="magnify"><defs/><g><!--cluster BubbleDet--><g id="cluster_BubbleDet"><path d="M8.5,6 L92.5,6 A3.75,3.75 0 0 1 95,8.5 L102,28.2969 L677.5,28.2969 A2.5,2.5 0 0 1 680,30.7969 L680,392.5 A2.5,2.5 0 0 1 677.5,395 L8.5,395 A2.5,2.5 0 0 1 6,392.5 L6,8.5 A2.5,2.5 0 0 1 8.5,6 " fill="none" style="stroke:#000000;stroke-width:1.5;"/><line style="stroke:#000000;stroke-width:1.5;" x1="6" x2="102" y1="28.2969" y2="28.2969"/><text fill="#000000" font-family="sans-serif" font-size="14" font-weight="bold" lengthAdjust="spacing" textLength="83" x="10" y="20.9951">BubbleDet</text></g><!--cluster determinant--><g id="cluster_determinant"><polygon fill="none" points="30,175,40,165,656,165,656,361,646,371,30,371,30,175" style="stroke:#181818;stroke-width:1.0;"/><line style="stroke:#181818;stroke-width:1.0;" x1="646" x2="656" y1="175" y2="165"/><line style="stroke:#181818;stroke-width:1.0;" x1="30" x2="646" y1="175" y2="175"/><line style="stroke:#181818;stroke-width:1.0;" x1="646" x2="646" y1="175" y2="371"/><text fill="#000000" font-family="sans-serif" font-size="14" font-weight="bold" lengthAdjust="spacing" textLength="125" x="276.5" y="190.9951">determinant.py</text></g><!--cluster config--><g id="cluster_config"><polygon fill="none" points="294,59,304,49,601,49,601,131,591,141,294,141,294,59" style="stroke:#181818;stroke-width:1.0;"/><line style="stroke:#181818;stroke-width:1.0;" x1="591" x2="601" y1="59" y2="49"/><line style="stroke:#181818;stroke-width:1.0;" x1="294" x2="591" y1="59" y2="59"/><line style="stroke:#181818;stroke-width:1.0;" x1="591" x2="591" y1="59" y2="141"/><text fill="#000000" font-family="sans-serif" font-size="14" font-weight="bold" lengthAdjust="spacing" textLength="75" x="406" y="74.9951">config.py</text></g><!--cluster CosmoTransitions--><g id="cluster_CosmoTransitions"><path d="M706.5,179 L855.5,179 A3.75,3.75 0 0 1 858,181.5 L865,201.2969 L1089.5,201.2969 A2.5,2.5 0 0 1 1092,203.7969 L1092,335.5 A2.5,2.5 0 0 1 1089.5,338 L706.5,338 A2.5,2.5 0 0 1 704,335.5 L704,181.5 A2.5,2.5 0 0 1 706.5,179 " fill="none" style="stroke:#000000;stroke-width:1.5;"/><line style="stroke:#000000;stroke-width:1.5;" x1="704" x2="865" y1="201.2969" y2="201.2969"/><text fill="#000000" font-family="sans-serif" font-size="14" font-weight="bold" lengthAdjust="spacing" textLength="148" x="708" y="193.9951">CosmoTransitions</text></g><!--cluster tunneling1d--><g id="cluster_tunneling1d"><polygon fill="none" points="728,232,738,222,1068,222,1068,304,1058,314,728,314,728,232" style="stroke:#181818;stroke-width:1.0;"/><line style="stroke:#181818;stroke-width:1.0;" x1="1058" x2="1068" y1="232" y2="222"/><line style="stroke:#181818;stroke-width:1.0;" x1="728" x2="1058" y1="232" y2="232"/><line style="stroke:#181818;stroke-width:1.0;" x1="1058" x2="1058" y1="232" y2="314"/><text fill="#000000" font-family="sans-serif" font-size="14" font-weight="bold" lengthAdjust="spacing" textLength="122" x="833" y="247.9951">tunneling1D.py</text></g><!--entity findDeterminant--><g id="elem_findDeterminant"><rect fill="#CFCFCF" height="36.2969" rx="35" ry="35" style="stroke:#181818;stroke-width:0.5;" width="151" x="488.5" y="262"/><text fill="#000000" font-family="sans-serif" font-size="14" lengthAdjust="spacing" textLength="131" x="498.5" y="284.9951">findDeterminant()</text></g><!--entity BubbleDeterminant--><g id="elem_BubbleDeterminant"><rect fill="#FEFECE" height="36.2969" rx="2.5" ry="2.5" style="stroke:#181818;stroke-width:0.5;" width="164" x="289" y="262"/><text fill="#000000" font-family="sans-serif" font-size="14" lengthAdjust="spacing" textLength="144" x="299" y="284.9951">BubbleDeterminant</text></g><g id="elem_Components"><rect fill="#FEFEFE" height="142.0781" style="stroke:#181818;stroke-width:0.5;" width="192" x="54" y="209"/><text fill="#000000" font-family="sans-serif" font-size="14" font-style="italic" lengthAdjust="spacing" textLength="93" x="103.5" y="223.9951">Sub-modules</text><line style="stroke:#181818;stroke-width:1.0;" x1="54" x2="246" y1="229.2969" y2="229.2969"/><text fill="#000000" font-family="sans-serif" font-size="14" lengthAdjust="spacing" textLength="175" x="62.5" y="244.292">derivative_expansion.py</text><line style="stroke:#181818;stroke-width:1.0;" x1="54" x2="246" y1="249.5938" y2="249.5938"/><text fill="#000000" font-family="sans-serif" font-size="14" lengthAdjust="spacing" textLength="136" x="82" y="264.5889">gelfand_yaglom.py</text><line style="stroke:#181818;stroke-width:1.0;" x1="54" x2="246" y1="269.8906" y2="269.8906"/><text fill="#000000" font-family="sans-serif" font-size="14" lengthAdjust="spacing" textLength="170" x="65" y="284.8857">negative_eigenvalue.py</text><line style="stroke:#181818;stroke-width:1.0;" x1="54" x2="246" y1="290.1875" y2="290.1875"/><text fill="#000000" font-family="sans-serif" font-size="14" lengthAdjust="spacing" textLength="104" x="98" y="305.1826">phi_infinity.py</text><line style="stroke:#181818;stroke-width:1.0;" x1="54" x2="246" y1="310.4844" y2="310.4844"/><text fill="#000000" font-family="sans-serif" font-size="14" lengthAdjust="spacing" textLength="136" x="82" y="325.4795">renormalisation.py</text><line style="stroke:#181818;stroke-width:1.0;" x1="54" x2="246" y1="330.7813" y2="330.7813"/><text fill="#000000" font-family="sans-serif" font-size="14" lengthAdjust="spacing" textLength="53" x="123.5" y="345.7764">wkb.py</text></g><!--entity BubbleConfig--><g id="elem_BubbleConfig"><rect fill="#FEFECE" height="36.2969" rx="2.5" ry="2.5" style="stroke:#181818;stroke-width:0.5;" width="118" x="467" y="89"/><text fill="#000000" font-family="sans-serif" font-size="14" lengthAdjust="spacing" textLength="98" x="477" y="111.9951">BubbleConfig</text></g><!--entity ParticleConfig--><g id="elem_ParticleConfig"><rect fill="#FEFECE" height="36.2969" rx="2.5" ry="2.5" style="stroke:#181818;stroke-width:0.5;" width="122" x="310" y="89"/><text fill="#000000" font-family="sans-serif" font-size="14" lengthAdjust="spacing" textLength="102" x="320" y="111.9951">ParticleConfig</text></g><!--entity FirstExample--><g id="elem_FirstExample"><path d="M625.4748,424.4818 C627.9415,419.0649 632.0232,419.5165 635.2953,423.654 C639.4985,417.135 643.9778,418.3592 648.303,423.5181 C651.1167,417.3216 654.4824,417.9162 658.8549,421.9029 C661.7101,415.3266 667.498,415.5197 670.9959,421.2698 C673.4139,415.5376 677.8437,414.8466 681.4647,420.1261 C686.1441,415.2729 689.8178,416.729 692.3046,422.3873 C696.059,417.96 699.2615,417.04 702.6035,422.8041 C705.7195,417.6643 711.1668,417.4735 714.0844,423.0173 C717.4106,418.0618 723.4887,417.4399 726.5466,423.3258 C731.2237,418.241 734.8023,419.1854 738.1404,424.7795 C746.4499,428.061 747.3738,433.7436 741.7503,440.2717 C747.2638,446.4057 745.7581,452.8758 737.3978,454.8745 C733.7441,460.1692 729.8225,460.5199 726.4194,454.6286 C723.9997,460.2697 718.5755,460.6777 715.1195,455.7351 C712.0712,460.3544 707.5037,460.9088 704.5965,455.5858 C702.0863,462.8285 696.3217,461.7736 692.2015,457.2873 C689.1271,462.5016 684.4249,463.4385 680.3079,458.51 C676.5123,462.4598 672.9628,463.0808 670.1353,457.4789 C665.9815,462.6576 661.6111,462.9229 658.4102,456.5145 C655.7423,461.8011 650.919,461.2078 648.5009,456.2724 C644.1536,461.1408 639.504,460.5506 636.5954,454.6777 C632.708,459.5511 627.0251,459.8396 624.306,453.4077 C617.2031,450.173 614.7859,443.55 622.3135,438.3759 C617.5262,432.2315 617.4241,427.7053 625.4748,424.4818 " fill="#A1C9F4" style="stroke:#181818;stroke-width:0.5;"/><text fill="#000000" font-family="sans-serif" font-size="14" lengthAdjust="spacing" textLength="98" x="631" y="442.9951">First Example</text></g><!--entity findProfile--><g id="elem_findProfile"><rect fill="#CFCFCF" height="36.2969" rx="35" ry="35" style="stroke:#181818;stroke-width:0.5;" width="105" x="744.5" y="262"/><text fill="#000000" font-family="sans-serif" font-size="14" lengthAdjust="spacing" textLength="85" x="754.5" y="284.9951">findProfile()</text></g><!--entity SingleFieldInstanton--><g id="elem_SingleFieldInstanton"><rect fill="#FEFECE" height="36.2969" rx="2.5" ry="2.5" style="stroke:#181818;stroke-width:0.5;" width="167" x="884.5" y="262"/><text fill="#000000" font-family="sans-serif" font-size="14" lengthAdjust="spacing" textLength="147" x="894.5" y="284.9951">SingleFieldInstanton</text></g><!--link Components to BubbleDeterminant--><g id="link_Components_BubbleDeterminant"><path d="M247,239 C278.063,239 305.9177,248.427 330.0307,259.41 " fill="none" id="Components-to-BubbleDeterminant" style="stroke:#181818;stroke-width:1.0;"/><polygon fill="#181818" points="335.491,261.897,328.9586,254.5262,330.9408,259.8245,325.6426,261.8066,335.491,261.897" style="stroke:#181818;stroke-width:1.0;"/></g><!--link Components to BubbleDeterminant--><g id="link_Components_BubbleDeterminant"><path d="M247,259 C260.648,259 269.0831,259.4537 283.0081,261.3707 " fill="none" id="Components-to-BubbleDeterminant-1" style="stroke:#181818;stroke-width:1.0;"/><polygon fill="#181818" points="288.952,262.189,280.5816,256.999,283.9987,261.5071,279.4906,264.9242,288.952,262.189" style="stroke:#181818;stroke-width:1.0;"/></g><!--link Components to BubbleDeterminant--><g id="link_Components_BubbleDeterminant"><path d="M247,279 C260.56,279 268.9611,279.0225 282.9521,279.1145 " fill="none" id="Components-to-BubbleDeterminant-2" style="stroke:#181818;stroke-width:1.0;"/><polygon fill="#181818" points="288.952,279.154,279.9785,275.0949,283.9521,279.1211,279.9259,283.0947,288.952,279.154" style="stroke:#181818;stroke-width:1.0;"/></g><!--link Components to BubbleDeterminant--><g id="link_Components_BubbleDeterminant"><path d="M247,300 C260.63,300 269.051,299.5697 282.973,297.7427 " fill="none" id="Components-to-BubbleDeterminant-3" style="stroke:#181818;stroke-width:1.0;"/><polygon fill="#181818" points="288.922,296.962,279.478,294.167,283.9645,297.6126,280.519,302.099,288.922,296.962" style="stroke:#181818;stroke-width:1.0;"/></g><!--link Components to BubbleDeterminant--><g id="link_Components_BubbleDeterminant"><path d="M247,320 C277.651,320 305.0954,311.0496 329.1634,300.4326 " fill="none" id="Components-to-BubbleDeterminant-4" style="stroke:#181818;stroke-width:1.0;"/><polygon fill="#181818" points="334.653,298.011,324.8042,297.9837,330.0783,300.029,328.033,305.3031,334.653,298.011" style="stroke:#181818;stroke-width:1.0;"/></g><!--link Components to BubbleDeterminant--><g id="link_Components_BubbleDeterminant"><path d="M247,340 C285.728,340 320.2143,319.2886 343.6393,301.6156 " fill="none" id="Components-to-BubbleDeterminant-5" style="stroke:#181818;stroke-width:1.0;"/><polygon fill="#181818" points="348.429,298.002,338.8353,300.2293,344.4375,301.0134,343.6535,306.6156,348.429,298.002" style="stroke:#181818;stroke-width:1.0;"/></g><!--link BubbleDeterminant to findDeterminant--><g id="link_BubbleDeterminant_findDeterminant"><path codeLine="15" d="M453.176,280 C464.864,280 476.553,280 488.241,280 " fill="none" id="BubbleDeterminant-findDeterminant" style="stroke:#181818;stroke-width:1.0;"/></g><!--link findProfile to SingleFieldInstanton--><g id="link_findProfile_SingleFieldInstanton"><path codeLine="30" d="M849.77,280 C861.315,280 872.861,280 884.407,280 " fill="none" id="findProfile-SingleFieldInstanton" style="stroke:#181818;stroke-width:1.0;"/></g><!--link findProfile to FirstExample--><g id="link_findProfile_FirstExample"><path codeLine="34" d="M784.032,298.291 C762.673,326.77 723.72,378.7068 700.195,410.0728 " fill="none" id="findProfile-to-FirstExample" style="stroke:#181818;stroke-width:1.0;stroke-dasharray:7.0,7.0;"/><polygon fill="#181818" points="696.595,414.8728,705.195,410.0729,699.595,410.8728,698.7951,405.2728,696.595,414.8728" style="stroke:#181818;stroke-width:1.0;"/></g><!--link findDeterminant to FirstExample--><g id="link_findDeterminant_FirstExample"><path codeLine="35" d="M576.857,298.291 C598.034,326.77 636.6428,378.692 659.9658,410.058 " fill="none" id="findDeterminant-to-FirstExample" style="stroke:#181818;stroke-width:1.0;stroke-dasharray:7.0,7.0;"/><polygon fill="#181818" points="663.546,414.8728,661.3856,405.2638,660.5625,410.8605,654.9659,410.0374,663.546,414.8728" style="stroke:#181818;stroke-width:1.0;"/></g><!--reverse link BubbleConfig to findProfile--><g id="link_BubbleConfig_findProfile"><path codeLine="36" d="M589.9841,127.023 C613.1441,135.037 633.823,143.801 656,157 C706.626,187.131 756.534,236.082 781.157,261.865 " fill="none" id="BubbleConfig-backto-findProfile" style="stroke:#181818;stroke-width:1.0;stroke-dasharray:7.0,7.0;"/><polygon fill="#181818" points="584.314,125.061,591.5112,131.7841,589.0391,126.696,594.1272,124.2239,584.314,125.061" style="stroke:#181818;stroke-width:1.0;"/></g><!--link ParticleConfig to BubbleDeterminant--><g id="link_ParticleConfig_BubbleDeterminant"><path codeLine="37" d="M371,125.021 C371,157.714 371,222.956 371,255.794 " fill="none" id="ParticleConfig-to-BubbleDeterminant" style="stroke:#181818;stroke-width:1.0;"/><polygon fill="#181818" points="371,261.794,375,252.794,371,256.794,367,252.794,371,261.794" style="stroke:#181818;stroke-width:1.0;"/></g><!--link BubbleConfig to BubbleDeterminant--><g id="link_BubbleConfig_BubbleDeterminant"><path codeLine="38" d="M505.185,125.193 C494.588,134.278 481.714,145.835 471,157 C437.246,192.172 405.693,232.621 387.401,256.926 " fill="none" id="BubbleConfig-to-BubbleDeterminant" style="stroke:#181818;stroke-width:1.0;"/><polygon fill="#181818" points="383.793,261.72,392.401,256.9343,386.7996,257.725,386.009,252.1237,383.793,261.72" style="stroke:#181818;stroke-width:1.0;"/></g><!--SRC=[ZLF9QiCm4BthAuHpQGjs2FHIA3qqQQ2tG7eFYZLMXaWZ8ybPAFdtsjcyn6qZ7sm_tjCiRqPeRRS6TqYAiLoaQw60lnVBfOO91FxDU7d8Ik2HX03E80aAIRwFkF2y0PsfrV71kkgQA4EIavhoy7WKTL0-IBFgkSeTf46GqeqyQcu66QHmvHgHysWud1VBs5XPQF33uJ78s9hS4b3m9qq6ZGIh8y7XHWJSm09skI2Fbigo-5FyTXktfLIWCq5oiHTAMtEVXa2TOw42sWXTm7t2V8KBfB9b6FRtAHoGTKPez6N4UslQhfV_4m_NhrjZugwjh5QSnYUrPHdgCZcdluOdNTV79qBNy9es4ovWsaiyi0DZgRQ5vD4KdG_yOoTChk4O-eYS0JuGe_GbUouJETJpFxRUs2zN3KNLGjzQWr0GWIxtPJIv55D3yhSrc3cReOR62foHFyP_ZjLhYg3b9_aI39Pk6jAyAdQeLY7k5TQDQIgIvAtL3zPTpXj2ovtN96acm3gUnBtZrBgXb_83]--></g></svg>