<?xml version="1.0" encoding="UTF-8" standalone="no"?>
<svg
   xmlns:dc="http://purl.org/dc/elements/1.1/"
   xmlns:cc="http://creativecommons.org/ns#"
   xmlns:rdf="http://www.w3.org/1999/02/22-rdf-syntax-ns#"
   xmlns:svg="http://www.w3.org/2000/svg"
   xmlns="http://www.w3.org/2000/svg"
   id="svg38"
   version="1.2"
   viewBox="0 0 260 196"
   height="196pt"
   width="260pt">
  <metadata
     id="metadata42">
    <rdf:RDF>
      <cc:Work
         rdf:about="">
        <dc:format>image/svg+xml</dc:format>
        <dc:type
           rdf:resource="http://purl.org/dc/dcmitype/StillImage" />
        <dc:title></dc:title>
      </cc:Work>
    </rdf:RDF>
  </metadata>
  <defs
     id="defs5">
    <clipPath
       id="clip1">
      <path
         id="path2"
         d="M 58 39 L 59 39 L 59 195.839844 L 58 195.839844 Z M 58 39 " />
    </clipPath>
  </defs>
  <g
     id="surface814">
    <path
       id="path7"
       d="M 21.5625 39.613281 L 23.902344 51.492188 L 23.976562 51.835938 L 24.046875 52.179688 L 24.191406 52.863281 L 24.480469 54.214844 L 25.058594 56.863281 L 26.210938 61.9375 L 26.285156 62.246094 L 26.355469 62.550781 L 26.5 63.160156 L 26.789062 64.367188 L 27.363281 66.726562 L 28.519531 71.234375 L 28.597656 71.53125 L 28.832031 72.410156 L 29.144531 73.566406 L 29.769531 75.820312 L 31.019531 80.097656 L 31.175781 80.613281 L 31.332031 81.121094 L 31.644531 82.125 L 32.269531 84.082031 L 33.519531 87.785156 L 33.597656 88.003906 L 33.671875 88.222656 L 33.824219 88.652344 L 34.132812 89.503906 L 34.746094 91.15625 L 35.972656 94.273438 L 36.050781 94.460938 L 36.128906 94.644531 L 36.28125 95.011719 L 36.585938 95.738281 L 37.203125 97.148438 L 38.429688 99.789062 L 38.5 99.9375 L 38.570312 100.082031 L 38.714844 100.371094 L 39 100.945312 L 39.574219 102.050781 L 40.71875 104.125 L 40.789062 104.25 L 40.863281 104.371094 L 41.003906 104.617188 L 41.292969 105.09375 L 41.863281 106.019531 L 43.007812 107.746094 L 43.320312 108.183594 L 43.628906 108.609375 L 44.25 109.425781 L 44.328125 109.527344 L 44.40625 109.625 L 44.558594 109.816406 L 44.871094 110.199219 L 45.492188 110.925781 L 45.648438 111.097656 L 45.800781 111.269531 L 46.113281 111.605469 L 46.734375 112.246094 L 47.972656 113.398438 L 48.121094 113.523438 L 48.265625 113.644531 L 48.554688 113.882812 L 49.132812 114.332031 L 49.207031 114.386719 L 49.277344 114.441406 L 49.421875 114.542969 L 49.714844 114.75 L 50.292969 115.132812 L 50.363281 115.179688 L 50.4375 115.226562 L 50.582031 115.316406 L 50.871094 115.488281 L 51.453125 115.8125 L 51.523438 115.847656 L 51.597656 115.886719 L 51.742188 115.960938 L 52.03125 116.105469 L 52.609375 116.371094 L 52.679688 116.398438 L 52.753906 116.429688 L 52.894531 116.488281 L 53.179688 116.601562 L 53.320312 116.65625 L 53.460938 116.707031 L 53.746094 116.808594 L 53.816406 116.832031 L 53.890625 116.855469 L 54.03125 116.902344 L 54.316406 116.988281 L 54.882812 117.144531 L 54.953125 117.164062 L 55.023438 117.179688 L 55.167969 117.214844 L 55.449219 117.277344 L 55.523438 117.292969 L 55.59375 117.304688 L 55.734375 117.335938 L 56.019531 117.386719 L 56.160156 117.410156 L 56.304688 117.433594 L 56.375 117.441406 L 56.445312 117.453125 L 56.585938 117.472656 L 56.65625 117.480469 L 56.730469 117.492188 L 57.011719 117.523438 L 57.15625 117.539062 L 57.230469 117.542969 L 57.386719 117.558594 L 57.464844 117.5625 L 57.539062 117.570312 L 57.773438 117.582031 L 57.847656 117.589844 L 57.925781 117.589844 L 58.003906 117.59375 L 58.078125 117.597656 L 58.15625 117.601562 L 58.234375 117.601562 L 58.3125 117.605469 L 58.464844 117.605469 L 58.542969 117.609375 L 58.851562 117.609375 L 58.925781 117.605469 L 59.082031 117.605469 L 59.160156 117.601562 L 59.234375 117.597656 L 59.3125 117.597656 L 59.390625 117.59375 L 59.464844 117.589844 L 59.699219 117.578125 L 59.773438 117.574219 L 59.929688 117.5625 L 60.007812 117.558594 L 60.082031 117.550781 L 60.238281 117.539062 L 60.3125 117.53125 L 60.546875 117.507812 L 60.855469 117.472656 L 60.929688 117.464844 L 61.007812 117.453125 L 61.160156 117.433594 L 61.46875 117.390625 L 61.625 117.367188 L 61.777344 117.339844 L 62.085938 117.285156 L 62.160156 117.273438 L 62.230469 117.257812 L 62.375 117.230469 L 62.660156 117.171875 L 63.238281 117.046875 L 63.308594 117.027344 L 63.378906 117.011719 L 63.523438 116.976562 L 63.8125 116.902344 L 64.386719 116.746094 L 64.457031 116.726562 L 64.53125 116.707031 L 64.675781 116.664062 L 64.960938 116.578125 L 65.539062 116.398438 L 66.6875 116 L 66.765625 115.96875 L 66.84375 115.941406 L 67.3125 115.765625 L 67.933594 115.519531 L 69.179688 114.996094 L 71.675781 113.835938 L 71.75 113.800781 L 71.828125 113.761719 L 71.980469 113.6875 L 72.285156 113.535156 L 72.898438 113.226562 L 74.125 112.59375 L 76.570312 111.289062 L 81.136719 108.800781 L 86.089844 106.246094 L 86.164062 106.214844 L 86.234375 106.179688 L 86.378906 106.109375 L 87.246094 105.699219 L 88.402344 105.175781 L 88.472656 105.144531 L 88.546875 105.109375 L 88.980469 104.921875 L 89.558594 104.675781 L 90.714844 104.207031 L 90.871094 104.144531 L 91.027344 104.085938 L 91.339844 103.964844 L 91.964844 103.734375 L 93.21875 103.300781 L 93.296875 103.273438 L 93.375 103.25 L 93.84375 103.097656 L 94.46875 102.90625 L 95.722656 102.5625 L 95.800781 102.542969 L 95.875 102.523438 L 96.03125 102.484375 L 96.335938 102.40625 L 96.953125 102.265625 L 97.027344 102.25 L 97.105469 102.234375 L 97.257812 102.199219 L 97.566406 102.136719 L 98.179688 102.019531 L 98.257812 102.003906 L 98.335938 101.992188 L 98.488281 101.964844 L 98.796875 101.914062 L 98.871094 101.902344 L 98.949219 101.890625 L 99.101562 101.867188 L 99.410156 101.820312 L 99.488281 101.8125 L 99.5625 101.800781 L 99.71875 101.78125 L 100.023438 101.742188 L 100.101562 101.734375 L 100.179688 101.722656 L 100.332031 101.707031 L 100.640625 101.675781 L 100.710938 101.667969 L 100.785156 101.660156 L 100.925781 101.648438 L 101 101.640625 L 101.070312 101.636719 L 101.214844 101.625 L 101.285156 101.621094 L 101.355469 101.613281 L 101.5 101.605469 L 101.570312 101.597656 L 101.644531 101.59375 L 101.785156 101.585938 L 101.859375 101.582031 L 101.929688 101.578125 L 102.074219 101.570312 L 102.144531 101.566406 L 102.21875 101.566406 L 102.359375 101.558594 L 102.433594 101.554688 L 102.503906 101.554688 L 102.574219 101.550781 L 102.648438 101.550781 L 102.71875 101.546875 L 102.863281 101.546875 L 102.933594 101.542969 L 103.148438 101.542969 L 103.21875 101.539062 L 103.507812 101.539062 L 103.578125 101.542969 L 103.792969 101.542969 L 103.867188 101.546875 L 104.007812 101.546875 L 104.082031 101.550781 L 104.152344 101.550781 L 104.222656 101.554688 L 104.296875 101.554688 L 104.4375 101.5625 L 104.511719 101.566406 L 104.652344 101.570312 L 104.726562 101.574219 L 104.796875 101.578125 L 104.941406 101.585938 L 105.011719 101.589844 L 105.085938 101.59375 L 105.226562 101.605469 L 105.304688 101.609375 L 105.382812 101.617188 L 105.539062 101.628906 L 105.617188 101.636719 L 105.695312 101.640625 L 105.847656 101.65625 L 106.160156 101.6875 L 106.472656 101.722656 L 106.550781 101.730469 L 106.625 101.738281 L 106.78125 101.757812 L 107.09375 101.800781 L 107.714844 101.898438 L 107.871094 101.921875 L 108.027344 101.949219 L 108.335938 102.007812 L 108.957031 102.132812 L 109.035156 102.148438 L 109.113281 102.167969 L 109.269531 102.199219 L 109.582031 102.273438 L 110.203125 102.429688 L 110.273438 102.449219 L 110.347656 102.46875 L 110.492188 102.507812 L 110.78125 102.589844 L 111.363281 102.761719 L 111.433594 102.785156 L 111.507812 102.808594 L 111.652344 102.851562 L 111.945312 102.949219 L 112.523438 103.148438 L 112.597656 103.171875 L 112.667969 103.199219 L 112.8125 103.253906 L 113.105469 103.359375 L 113.683594 103.585938 L 114.847656 104.078125 L 114.917969 104.113281 L 114.988281 104.144531 L 115.128906 104.210938 L 115.414062 104.339844 L 115.984375 104.613281 L 117.121094 105.203125 L 117.195312 105.238281 L 117.40625 105.355469 L 117.691406 105.511719 L 118.261719 105.839844 L 119.398438 106.523438 L 119.476562 106.574219 L 119.554688 106.621094 L 119.707031 106.71875 L 120.015625 106.917969 L 120.632812 107.324219 L 121.867188 108.183594 L 124.339844 110.066406 L 124.410156 110.125 L 124.484375 110.183594 L 124.625 110.300781 L 124.914062 110.539062 L 125.492188 111.019531 L 126.644531 112.019531 L 128.949219 114.144531 L 133.945312 119.289062 L 138.847656 124.925781 L 143.421875 130.535156 L 148.382812 136.777344 L 153.015625 142.515625 L 157.554688 147.804688 L 157.632812 147.886719 L 157.707031 147.972656 L 157.863281 148.144531 L 158.167969 148.480469 L 158.785156 149.144531 L 160.015625 150.433594 L 160.09375 150.515625 L 160.171875 150.59375 L 160.324219 150.75 L 160.632812 151.058594 L 161.25 151.667969 L 162.480469 152.839844 L 162.550781 152.90625 L 162.625 152.972656 L 162.765625 153.105469 L 163.054688 153.363281 L 163.628906 153.871094 L 164.777344 154.835938 L 164.851562 154.894531 L 164.921875 154.953125 L 165.066406 155.066406 L 165.351562 155.292969 L 165.925781 155.730469 L 167.078125 156.550781 L 167.152344 156.601562 L 167.230469 156.65625 L 167.699219 156.960938 L 168.320312 157.34375 L 168.476562 157.4375 L 168.632812 157.527344 L 168.945312 157.703125 L 169.566406 158.035156 L 169.878906 158.191406 L 170.191406 158.339844 L 170.269531 158.375 L 170.347656 158.414062 L 170.5 158.480469 L 170.8125 158.617188 L 171.125 158.742188 L 171.4375 158.863281 L 172.058594 159.078125 L 172.132812 159.101562 L 172.203125 159.125 L 172.347656 159.167969 L 172.640625 159.25 L 172.714844 159.269531 L 172.785156 159.289062 L 172.929688 159.328125 L 173.222656 159.394531 L 173.292969 159.414062 L 173.367188 159.429688 L 173.511719 159.457031 L 173.585938 159.472656 L 173.65625 159.484375 L 173.804688 159.511719 L 173.875 159.523438 L 173.949219 159.535156 L 174.09375 159.558594 L 174.167969 159.570312 L 174.238281 159.578125 L 174.386719 159.597656 L 174.457031 159.605469 L 174.53125 159.613281 L 174.601562 159.621094 L 174.75 159.636719 L 174.820312 159.640625 L 174.894531 159.648438 L 174.964844 159.652344 L 175.113281 159.660156 L 175.183594 159.664062 L 175.257812 159.667969 L 175.328125 159.671875 L 175.402344 159.671875 L 175.476562 159.675781 L 175.839844 159.675781 L 175.910156 159.671875 L 175.984375 159.671875 L 176.058594 159.667969 L 176.128906 159.664062 L 176.203125 159.664062 L 176.273438 159.660156 L 176.347656 159.652344 L 176.421875 159.648438 L 176.492188 159.644531 L 176.566406 159.636719 L 176.710938 159.625 L 176.78125 159.617188 L 176.855469 159.609375 L 176.996094 159.589844 L 177.066406 159.582031 L 177.140625 159.570312 L 177.421875 159.523438 L 177.566406 159.5 L 177.851562 159.441406 L 177.921875 159.421875 L 177.992188 159.40625 L 178.136719 159.371094 L 178.421875 159.296875 L 178.492188 159.277344 L 178.5625 159.253906 L 178.707031 159.210938 L 178.992188 159.117188 L 179.0625 159.09375 L 179.132812 159.066406 L 179.277344 159.015625 L 179.5625 158.902344 L 179.632812 158.875 L 179.703125 158.84375 L 179.847656 158.78125 L 180.132812 158.652344 L 180.273438 158.582031 L 180.417969 158.511719 L 180.703125 158.363281 L 181.273438 158.035156 L 181.351562 157.984375 L 181.425781 157.9375 L 181.582031 157.839844 L 181.890625 157.632812 L 182.507812 157.183594 L 182.585938 157.125 L 182.664062 157.0625 L 182.820312 156.941406 L 183.128906 156.6875 L 183.746094 156.140625 L 183.824219 156.066406 L 183.902344 155.996094 L 184.054688 155.847656 L 184.363281 155.539062 L 184.984375 154.890625 L 186.21875 153.425781 L 186.292969 153.335938 L 186.363281 153.242188 L 186.507812 153.054688 L 186.796875 152.667969 L 187.375 151.859375 L 188.527344 150.089844 L 188.601562 149.972656 L 188.671875 149.855469 L 188.816406 149.617188 L 189.105469 149.128906 L 189.683594 148.109375 L 190.835938 145.914062 L 190.914062 145.757812 L 191.148438 145.277344 L 191.464844 144.628906 L 192.089844 143.277344 L 193.339844 140.363281 L 193.417969 140.171875 L 193.496094 139.976562 L 193.652344 139.589844 L 193.964844 138.796875 L 194.589844 137.160156 L 195.839844 133.660156 L 195.917969 133.4375 L 195.996094 133.210938 L 196.457031 131.828125 L 197.070312 129.921875 L 198.296875 125.878906 L 198.375 125.613281 L 198.453125 125.351562 L 198.605469 124.816406 L 198.910156 123.738281 L 199.527344 121.511719 L 200.753906 116.816406 L 200.824219 116.535156 L 200.898438 116.25 L 201.039062 115.675781 L 201.328125 114.511719 L 201.898438 112.128906 L 203.046875 107.136719 L 203.1875 106.488281 L 203.332031 105.839844 L 203.617188 104.519531 L 204.191406 101.824219 L 205.335938 96.191406 L 205.492188 95.402344 L 205.648438 94.605469 L 205.957031 92.996094 L 206.578125 89.703125 L 207.820312 82.808594 L 210.304688 67.753906 L 210.378906 67.289062 L 210.449219 66.820312 L 210.597656 65.882812 L 210.886719 63.988281 L 211.464844 60.125 L 212.625 52.101562 L 214.300781 39.613281 "
       style="fill:none;stroke-width:1.152;stroke-linecap:square;stroke-linejoin:miter;stroke:rgb(0.784302%,61.958313%,45.097351%);stroke-opacity:1;stroke-miterlimit:3.25;" />
    <path
       id="path9"
       d="M 58.679688 117.609375 L 58.679688 114.734375 "
       style="fill:none;stroke-width:0.36;stroke-linecap:butt;stroke-linejoin:miter;stroke:rgb(0%,0%,0%);stroke-opacity:1;stroke-miterlimit:3.25;" />
    <path
       id="path11"
       d="M 175.671875 117.609375 L 175.671875 114.734375 "
       style="fill:none;stroke-width:0.36;stroke-linecap:butt;stroke-linejoin:miter;stroke:rgb(0%,0%,0%);stroke-opacity:1;stroke-miterlimit:3.25;" />
    <path
       id="path13"
       d="M 175.429688 136.84375 C 175.429688 134.242188 173.472656 132.390625 170.613281 132.207031 L 172.136719 125.976562 C 172.136719 125.746094 171.953125 125.746094 171.875 125.746094 C 171.644531 125.746094 171.617188 125.796875 171.515625 126.234375 L 170.125 131.769531 C 170.050781 132.105469 169.996094 132.15625 169.996094 132.15625 C 169.972656 132.207031 169.738281 132.234375 169.738281 132.234375 C 165.515625 132.59375 162.273438 136.070312 162.273438 139.285156 C 162.273438 142.066406 164.410156 143.769531 167.085938 143.921875 L 166.496094 146.34375 C 166.132812 147.707031 165.929688 148.558594 165.929688 148.660156 C 165.929688 148.660156 165.929688 148.863281 166.183594 148.863281 C 166.261719 148.863281 166.367188 148.863281 166.417969 148.761719 C 166.46875 148.710938 166.625 148.089844 166.726562 147.757812 L 167.679688 143.921875 C 172.082031 143.691406 175.429688 140.085938 175.429688 136.84375 Z M 173.859375 136.300781 C 173.859375 139.210938 171.824219 143.074219 167.808594 143.378906 L 170.460938 132.722656 C 172.160156 132.824219 173.859375 133.78125 173.859375 136.300781 Z M 169.894531 132.75 L 167.214844 143.40625 C 165.957031 143.328125 163.84375 142.660156 163.84375 139.832031 C 163.84375 136.582031 166.183594 132.980469 169.894531 132.75 Z M 169.894531 132.75 "
       style=" stroke:none;fill-rule:evenodd;fill:rgb(0%,0%,0%);fill-opacity:1;" />
    <path
       id="path15"
       d="M 188.460938 139.792969 L 188.117188 135.898438 L 176.960938 135.898438 L 176.617188 139.792969 L 177.148438 139.792969 C 177.390625 136.894531 177.785156 136.464844 180.410156 136.464844 C 180.738281 136.464844 181.269531 136.464844 181.40625 136.5 C 181.734375 136.566406 181.75 136.738281 181.75 137.167969 L 181.75 146.09375 C 181.75 146.695312 181.75 146.933594 179.964844 146.933594 L 179.3125 146.933594 L 179.3125 147.5 C 179.949219 147.449219 181.800781 147.449219 182.539062 147.449219 C 183.277344 147.449219 185.132812 147.449219 185.765625 147.5 L 185.765625 146.933594 L 185.113281 146.933594 C 183.328125 146.933594 183.328125 146.695312 183.328125 146.09375 L 183.328125 137.167969 C 183.328125 136.773438 183.328125 136.566406 183.691406 136.5 C 183.84375 136.464844 184.339844 136.464844 184.667969 136.464844 C 187.292969 136.464844 187.6875 136.894531 187.929688 139.792969 Z M 188.460938 139.792969 "
       style=" stroke:none;fill-rule:evenodd;fill:rgb(0%,0%,0%);fill-opacity:1;" />
    <path
       id="path17"
       d="M 0.179688 117.609375 L 234.171875 117.609375 "
       style="fill:none;stroke-width:0.36;stroke-linecap:butt;stroke-linejoin:miter;stroke:rgb(0%,0%,0%);stroke-opacity:1;stroke-miterlimit:3.25;" />
    <path
       id="path19"
       d="M 256.457031 117.039062 C 256.457031 114.4375 254.5 112.582031 251.640625 112.402344 L 253.164062 106.171875 C 253.164062 105.9375 252.980469 105.9375 252.902344 105.9375 C 252.675781 105.9375 252.648438 105.992188 252.542969 106.425781 L 251.152344 111.964844 C 251.078125 112.300781 251.023438 112.351562 251.023438 112.351562 C 251 112.402344 250.769531 112.429688 250.769531 112.429688 C 246.546875 112.789062 243.304688 116.265625 243.304688 119.480469 C 243.304688 122.261719 245.4375 123.960938 248.113281 124.117188 L 247.523438 126.539062 C 247.164062 127.902344 246.957031 128.75 246.957031 128.851562 C 246.957031 128.851562 246.957031 129.058594 247.214844 129.058594 C 247.292969 129.058594 247.394531 129.058594 247.445312 128.957031 C 247.496094 128.90625 247.652344 128.285156 247.753906 127.953125 L 248.710938 124.117188 C 253.109375 123.886719 256.457031 120.28125 256.457031 117.039062 Z M 254.886719 116.496094 C 254.886719 119.402344 252.851562 123.265625 248.835938 123.574219 L 251.488281 112.917969 C 253.1875 113.019531 254.886719 113.972656 254.886719 116.496094 Z M 250.921875 112.945312 L 248.242188 123.601562 C 246.984375 123.523438 244.871094 122.855469 244.871094 120.023438 C 244.871094 116.777344 247.214844 113.171875 250.921875 112.945312 Z M 250.921875 112.945312 "
       style=" stroke:none;fill-rule:evenodd;fill:rgb(0%,0%,0%);fill-opacity:1;" />
    <g
       id="g23"
       clip-rule="nonzero"
       clip-path="url(#clip1)">
      <path
         id="path21"
         d="M 58.679688 195.605469 L 58.679688 39.613281 "
         style="fill:none;stroke-width:0.36;stroke-linecap:butt;stroke-linejoin:miter;stroke:rgb(0%,0%,0%);stroke-opacity:1;stroke-miterlimit:3.25;" />
    </g>
    <path
       id="path25"
       d="M 50.582031 6.519531 C 50.582031 6.414062 50.527344 6.257812 50.296875 6.257812 C 49.832031 6.257812 48.726562 6.3125 48.261719 6.3125 C 47.519531 6.3125 46.746094 6.257812 46.023438 6.257812 C 45.816406 6.257812 45.558594 6.257812 45.558594 6.75 C 45.558594 6.980469 45.792969 7.007812 45.894531 7.007812 C 46.847656 7.082031 46.949219 7.546875 46.949219 7.855469 C 46.949219 8.242188 46.566406 8.859375 46.566406 8.859375 L 38.480469 21.679688 L 36.679688 7.804688 C 36.679688 7.058594 38.019531 7.007812 38.300781 7.007812 C 38.6875 7.007812 38.917969 7.007812 38.917969 6.519531 C 38.917969 6.257812 38.636719 6.257812 38.558594 6.257812 C 38.117188 6.257812 37.605469 6.3125 37.167969 6.3125 L 35.726562 6.3125 C 33.847656 6.3125 33.046875 6.257812 33.046875 6.257812 C 32.894531 6.257812 32.585938 6.257812 32.585938 6.722656 C 32.585938 7.007812 32.761719 7.007812 33.175781 7.007812 C 34.492188 7.007812 34.566406 7.238281 34.644531 7.882812 L 36.703125 23.765625 C 36.78125 24.308594 36.78125 24.382812 37.140625 24.382812 C 37.449219 24.382812 37.578125 24.308594 37.835938 23.894531 L 47.128906 9.117188 C 48.007812 7.726562 48.804688 7.109375 50.117188 7.007812 C 50.375 6.980469 50.582031 6.980469 50.582031 6.519531 Z M 50.582031 6.519531 "
       style=" stroke:none;fill-rule:evenodd;fill:rgb(0%,0%,0%);fill-opacity:1;" />
    <path
       id="path27"
       d="M 59.863281 30.101562 C 59.863281 30.023438 59.863281 29.972656 59.425781 29.535156 C 56.851562 26.933594 55.410156 22.6875 55.410156 17.433594 C 55.410156 12.4375 56.621094 8.136719 59.605469 5.101562 C 59.863281 4.867188 59.863281 4.816406 59.863281 4.738281 C 59.863281 4.585938 59.734375 4.535156 59.632812 4.535156 C 59.296875 4.535156 57.1875 6.386719 55.925781 8.910156 C 54.613281 11.511719 54.019531 14.265625 54.019531 17.433594 C 54.019531 19.722656 54.378906 22.789062 55.71875 25.546875 C 57.238281 28.632812 59.347656 30.308594 59.632812 30.308594 C 59.734375 30.308594 59.863281 30.257812 59.863281 30.101562 Z M 59.863281 30.101562 "
       style=" stroke:none;fill-rule:evenodd;fill:rgb(0%,0%,0%);fill-opacity:1;" />
    <path
       id="path29"
       d="M 75.796875 17.074219 C 75.796875 14.472656 73.839844 12.621094 70.980469 12.4375 L 72.503906 6.207031 C 72.503906 5.976562 72.320312 5.976562 72.246094 5.976562 C 72.015625 5.976562 71.988281 6.03125 71.882812 6.464844 L 70.492188 12.003906 C 70.417969 12.335938 70.363281 12.386719 70.363281 12.386719 C 70.339844 12.4375 70.109375 12.464844 70.109375 12.464844 C 65.886719 12.824219 62.644531 16.300781 62.644531 19.519531 C 62.644531 22.300781 64.78125 24 67.457031 24.15625 L 66.863281 26.574219 C 66.503906 27.9375 66.296875 28.789062 66.296875 28.890625 C 66.296875 28.890625 66.296875 29.09375 66.554688 29.09375 C 66.632812 29.09375 66.738281 29.09375 66.789062 28.996094 C 66.839844 28.945312 66.992188 28.324219 67.09375 27.988281 L 68.050781 24.15625 C 72.449219 23.921875 75.796875 20.316406 75.796875 17.074219 Z M 74.230469 16.53125 C 74.230469 19.441406 72.195312 23.304688 68.175781 23.613281 L 70.832031 12.953125 C 72.527344 13.054688 74.230469 14.011719 74.230469 16.53125 Z M 70.261719 12.980469 L 67.582031 23.636719 C 66.324219 23.5625 64.210938 22.894531 64.210938 20.0625 C 64.210938 16.816406 66.554688 13.210938 70.261719 12.980469 Z M 70.261719 12.980469 "
       style=" stroke:none;fill-rule:evenodd;fill:rgb(0%,0%,0%);fill-opacity:1;" />
    <path
       id="path31"
       d="M 83.59375 17.433594 C 83.59375 15.480469 83.335938 12.285156 81.894531 9.300781 C 80.378906 6.207031 78.265625 4.535156 77.980469 4.535156 C 77.878906 4.535156 77.753906 4.585938 77.753906 4.738281 C 77.753906 4.816406 77.753906 4.867188 78.1875 5.308594 C 80.761719 7.910156 82.203125 12.15625 82.203125 17.410156 C 82.203125 22.402344 80.996094 26.703125 78.007812 29.738281 C 77.753906 29.972656 77.753906 30.023438 77.753906 30.101562 C 77.753906 30.257812 77.878906 30.308594 77.980469 30.308594 C 78.316406 30.308594 80.429688 28.453125 81.691406 25.929688 C 83.003906 23.304688 83.59375 20.523438 83.59375 17.433594 Z M 83.59375 17.433594 "
       style=" stroke:none;fill-rule:evenodd;fill:rgb(0%,0%,0%);fill-opacity:1;" />
    <path
       id="path33"
       d="M 59.070312 138.636719 C 59.070312 136.035156 57.113281 134.183594 54.253906 134 L 55.777344 127.769531 C 55.777344 127.539062 55.59375 127.539062 55.515625 127.539062 C 55.285156 127.539062 55.261719 127.59375 55.15625 128.027344 L 53.765625 133.566406 C 53.691406 133.898438 53.636719 133.949219 53.636719 133.949219 C 53.613281 134 53.378906 134.027344 53.378906 134.027344 C 49.160156 134.390625 45.914062 137.863281 45.914062 141.082031 C 45.914062 143.863281 48.050781 145.5625 50.726562 145.71875 L 50.136719 148.136719 C 49.777344 149.5 49.570312 150.351562 49.570312 150.453125 C 49.570312 150.453125 49.570312 150.660156 49.828125 150.660156 C 49.902344 150.660156 50.007812 150.660156 50.058594 150.558594 C 50.109375 150.507812 50.265625 149.886719 50.367188 149.550781 L 51.320312 145.71875 C 55.722656 145.484375 59.070312 141.882812 59.070312 138.636719 Z M 57.5 138.09375 C 57.5 141.003906 55.464844 144.867188 51.449219 145.175781 L 54.101562 134.515625 C 55.800781 134.617188 57.5 135.574219 57.5 138.09375 Z M 53.535156 134.542969 L 50.855469 145.203125 C 49.597656 145.125 47.484375 144.457031 47.484375 141.625 C 47.484375 138.378906 49.828125 134.773438 53.535156 134.542969 Z M 53.535156 134.542969 "
       style=" stroke:none;fill-rule:evenodd;fill:rgb(0%,0%,0%);fill-opacity:1;" />
    <path
       id="path35"
       d="M 70.730469 141.519531 L 70.230469 137.621094 L 60.363281 137.621094 L 60.363281 138.1875 L 60.742188 138.1875 C 62.058594 138.1875 62.09375 138.378906 62.09375 139.011719 L 62.09375 147.90625 C 62.09375 148.539062 62.058594 148.726562 60.742188 148.726562 L 60.363281 148.726562 L 60.363281 149.296875 L 63.003906 149.246094 C 63.8125 149.246094 65.0625 149.246094 65.835938 149.296875 L 65.835938 148.726562 L 65.285156 148.726562 C 63.671875 148.726562 63.671875 148.488281 63.671875 147.886719 L 63.671875 143.734375 L 65.269531 143.734375 C 66.953125 143.734375 67.160156 144.265625 67.160156 145.742188 L 67.691406 145.742188 L 67.691406 141.160156 L 67.160156 141.160156 C 67.160156 142.621094 66.953125 143.167969 65.269531 143.167969 L 63.671875 143.167969 L 63.671875 138.894531 C 63.671875 138.308594 63.710938 138.1875 64.5 138.1875 L 66.78125 138.1875 C 69.578125 138.1875 69.90625 139.273438 70.195312 141.519531 Z M 70.730469 141.519531 "
       style=" stroke:none;fill-rule:evenodd;fill:rgb(0%,0%,0%);fill-opacity:1;" />
  </g>
</svg>
