<?xml version="1.0" encoding="UTF-8"?>
<!-- Generator: visioncortex VTracer 0.6.1 -->
<svg version="1.1" xmlns="http://www.w3.org/2000/svg" width="1280" height="1280">
<path d="M0 0 C422.4 0 844.8 0 1280 0 C1280 422.4 1280 844.8 1280 1280 C857.6 1280 435.2 1280 0 1280 C0 857.6 0 435.2 0 0 Z " fill="#F9FCFE" transform="translate(0,0)"/>
<path d="M0 0 C0.94166016 -0.00845947 1.88332031 -0.01691895 2.85351562 -0.02563477 C3.88514832 -0.01956207 4.91678101 -0.01348938 5.97967529 -0.00723267 C7.06792603 -0.01248962 8.15617676 -0.01774658 9.27740479 -0.02316284 C12.89022012 -0.03640812 16.5025973 -0.02760115 20.11541748 -0.01748657 C22.63110437 -0.01950775 25.1467907 -0.02241956 27.66247559 -0.02618408 C32.94860929 -0.03061502 38.23458617 -0.02444473 43.52069092 -0.01016235 C49.59571704 0.00606417 55.6704395 0.00095168 61.74545789 -0.01564157 C67.61607336 -0.03102463 73.48657555 -0.02922902 79.35720062 -0.02049637 C81.84003493 -0.01850797 84.32287706 -0.0209053 86.80570221 -0.02793503 C103.19781313 -0.06412082 118.18772942 0.52442173 133.66229248 6.44345093 C134.44459229 6.73872681 135.22689209 7.03400269 136.03289795 7.33822632 C149.01610105 12.40910263 161.52187097 18.40563309 171.41229248 28.38095093 C172.67949847 29.40628357 173.95041542 30.42704493 175.22479248 31.44345093 C193.01899985 47.18991221 206.64600161 71.81701127 209.41229248 95.38095093 C209.67515588 100.1977452 209.69276923 104.99550572 209.66229248 109.81845093 C209.67002686 111.03854858 209.67776123 112.25864624 209.68572998 113.51571655 C209.6312251 139.14663515 200.85550459 163.40114264 183.41229248 182.38095093 C182.4972105 183.44536571 181.58457167 184.51188434 180.67401123 185.58016968 C167.82117579 200.4048819 150.97014301 211.68747196 131.41229248 215.38095093 C130.42229248 215.38095093 129.43229248 215.38095093 128.41229248 215.38095093 C126.1224631 210.80129216 127.10072598 204.06499653 127.06219482 198.97836304 C127.04564723 197.3769781 127.01837239 195.77566666 126.98016357 194.1746521 C126.92526517 191.86151977 126.9035033 189.55011657 126.88885498 187.23641968 C126.86618561 186.52479172 126.84351624 185.81316376 126.82015991 185.07997131 C126.83655912 181.20248587 127.27188502 179.55417308 129.74285889 176.50570679 C132.73439981 174.12456716 135.74996129 172.47728244 139.16229248 170.75595093 C146.33349421 166.90780606 150.68742189 162.01525376 155.41229248 155.38095093 C155.98592529 154.67841187 156.55955811 153.9758728 157.15057373 153.25204468 C161.13927231 148.35277471 163.2542907 143.27692009 165.41229248 137.38095093 C165.96570195 136.10613268 166.52719708 134.83476768 167.09979248 133.56845093 C172.6448856 120.10179621 171.01180484 101.05685691 165.82635498 87.68563843 C165.12639404 86.04981812 165.12639404 86.04981812 164.41229248 84.38095093 C164.02815186 83.45540405 163.64401123 82.52985718 163.24822998 81.57626343 C155.59581036 64.86587773 142.30961637 51.6973645 125.11737061 45.09725952 C111.69930054 40.61004778 96.9430528 41.45186793 82.95019531 41.39273071 C80.2394268 41.38014856 77.52877149 41.36026435 74.8180542 41.33944702 C69.01615614 41.29712627 63.21432061 41.27160449 57.41229248 41.25595093 C56.4689505 41.25300018 55.52560852 41.25004944 54.55368042 41.24700928 C51.88150723 41.24131678 49.20946491 41.24323084 46.53729248 41.24813843 C45.72848129 41.24617966 44.9196701 41.24422089 44.08634949 41.24220276 C40.45042482 40.91422141 40.45042482 40.91422141 37.41229248 42.38095093 C37.2903144 43.76145951 37.23460349 45.1479274 37.20697021 46.53353882 C37.18702499 47.41437637 37.16707977 48.29521393 37.14653015 49.20274353 C37.12146141 50.63867104 37.12146141 50.63867104 37.09588623 52.10360718 C37.07510513 53.07881821 37.05432404 54.05402924 37.03291321 55.05879211 C36.96730836 58.18693723 36.9084822 61.31516915 36.84979248 64.44345093 C36.80661765 66.55869443 36.76300371 68.67392902 36.71893311 70.78915405 C36.61161593 75.9863268 36.50987028 81.1835867 36.41229248 86.38095093 C30.30674538 86.40559606 24.20122697 86.42378464 18.09564209 86.43588257 C16.01686092 86.44092381 13.93808332 86.44775667 11.85931396 86.45639038 C8.87826662 86.46846515 5.89726599 86.47418117 2.91619873 86.47860718 C1.51308189 86.48634911 1.51308189 86.48634911 0.08161926 86.49424744 C-1.20960594 86.49436073 -1.20960594 86.49436073 -2.5269165 86.49447632 C-3.28858627 86.49669693 -4.05025604 86.49891754 -4.83500671 86.50120544 C-6.58770752 86.38095093 -6.58770752 86.38095093 -7.58770752 85.38095093 C-7.69871748 82.84120615 -7.74509566 80.32839678 -7.74884033 77.78768921 C-7.75380524 76.99256927 -7.75877014 76.19744934 -7.7638855 75.37823486 C-7.77854498 72.73590239 -7.78531547 70.09362996 -7.79083252 67.45126343 C-7.79658098 65.62141924 -7.80233874 63.79157509 -7.80810547 61.96173096 C-7.81862632 58.11986001 -7.82446184 54.27801005 -7.82794189 50.43612671 C-7.8334281 45.50728025 -7.8574542 40.57870985 -7.88591385 35.64995003 C-7.90451547 31.86848128 -7.90974451 28.08707934 -7.91127777 24.3055687 C-7.91431058 22.48824428 -7.92236015 20.67092122 -7.93546295 18.85364151 C-7.9524716 16.31321327 -7.95065608 13.7734634 -7.94415283 11.23300171 C-7.95336761 10.47859802 -7.9625824 9.72419434 -7.97207642 8.94692993 C-7.93110425 3.85119291 -7.93110425 3.85119291 -6.35147095 1.68806839 C-4.09025423 0.01229044 -2.80013676 0.00386982 0 0 Z " fill="#2DA8CF" transform="translate(64.58770751953125,532.6190490722656)"/>
<path d="M0 0 C4.52274666 4.21598646 8.05208099 9.11315793 11.49609375 14.21875 C11.90786865 14.81776123 12.31964355 15.41677246 12.74389648 16.03393555 C15.43981129 20.25814943 15.43981129 20.25814943 14.859375 23.125 C12.90353646 25.37150472 10.90016722 26.62845628 8.30859375 28.09375 C6.97828125 28.85751953 6.97828125 28.85751953 5.62109375 29.63671875 C4.19714916 30.41844509 2.76151199 31.17979088 1.30859375 31.90625 C0.94507813 31.205 0.5815625 30.50375 0.20703125 29.78125 C-6.74715857 16.65744563 -13.94355849 6.92342891 -28.55078125 2.3203125 C-37.81094035 0.52911384 -47.38458173 1.36693014 -55.69140625 5.90625 C-57.99062628 7.66359166 -60.07671938 9.48090499 -62.1328125 11.515625 C-63.69140625 12.90625 -63.69140625 12.90625 -65.69140625 12.90625 C-65.97886719 13.62683594 -66.26632812 14.34742188 -66.5625 15.08984375 C-67.27840545 16.8758916 -67.99917872 18.66000221 -68.7265625 20.44140625 C-69.06558594 21.27542969 -69.40460937 22.10945312 -69.75390625 22.96875 C-70.09550781 23.80535156 -70.43710937 24.64195312 -70.7890625 25.50390625 C-73.89404959 33.77043033 -73.30258239 41.12729327 -69.984375 49.28125 C-63.80689847 61.82283376 -49.5724342 68.42823415 -37.25390625 73.71875 C7.23991662 92.83815071 7.23991662 92.83815071 16.1953125 112.76171875 C16.56269531 113.79941406 16.93007813 114.83710937 17.30859375 115.90625 C17.69942139 116.96888062 17.69942139 116.96888062 18.09814453 118.05297852 C20.41352016 124.88724819 20.85057211 131.28460537 20.80859375 138.46875 C20.80287354 139.60828125 20.79715332 140.7478125 20.79125977 141.921875 C20.39869359 160.63816154 14.19385883 173.64450774 0.91479492 186.71240234 C-14.14568494 200.96943925 -33.56712537 203.42072203 -53.54296875 203.1875 C-61.39487989 202.94671769 -68.26100559 201.45262326 -75.69140625 198.90625 C-76.77679687 198.54402344 -77.8621875 198.18179688 -78.98046875 197.80859375 C-86.34369093 195.0590361 -91.84983332 191.09772737 -97.69140625 185.90625 C-98.59503906 185.13410156 -99.49867188 184.36195313 -100.4296875 183.56640625 C-108.55934336 176.49560571 -108.55934336 176.49560571 -110.69140625 171.90625 C-110.71484375 169.85546875 -110.71484375 169.85546875 -109.69140625 167.90625 C-107.29296875 165.80078125 -107.29296875 165.80078125 -104.31640625 163.71875 C-103.33929687 163.02394531 -102.3621875 162.32914063 -101.35546875 161.61328125 C-98.69140625 159.90625 -98.69140625 159.90625 -95.69140625 158.90625 C-95.35109375 159.463125 -95.01078125 160.02 -94.66015625 160.59375 C-87.09419814 172.50610958 -77.46895227 181.13500319 -63.47265625 184.4375 C-53.49583219 186.1189872 -43.52727191 184.82418283 -34.44140625 180.28125 C-27.04178195 173.89066537 -20.59908276 167.02873909 -19.47265625 156.94873047 C-18.51184728 143.78865016 -20.92529501 135.45453456 -29.5078125 125.25 C-38.6532124 115.43382837 -51.19712306 109.15645511 -63.50390625 104.23046875 C-78.86774621 97.847697 -99.66887719 88.37680268 -106.78125 72.3046875 C-114.01099185 53.25292142 -113.28767239 36.39363396 -105.1328125 17.72265625 C-102.85630973 13.27453024 -100.00447689 9.62471747 -96.69140625 5.90625 C-96.14226563 5.24109375 -95.593125 4.5759375 -95.02734375 3.890625 C-71.03561609 -22.95474428 -26.75007977 -20.80993143 0 0 Z " fill="#2DA8CF" transform="translate(745.69140625,551.09375)"/>
<path d="M0 0 C0.82486908 -0.0066568 1.64973816 -0.0133136 2.49960327 -0.02017212 C4.25654879 -0.03032047 6.01353302 -0.03498847 7.77050781 -0.03466797 C10.40238873 -0.03896687 13.03248718 -0.07504893 15.6640625 -0.11328125 C29.55189257 -0.20782334 42.80351098 1.43555179 55.2734375 8.0234375 C55.934646 8.36665039 56.59585449 8.70986328 57.27709961 9.06347656 C68.23410401 15.02021266 75.69404499 24.56867127 79.8984375 36.30078125 C84.60650596 52.8016558 83.955556 70.50637728 75.5546875 85.72265625 C69.30867258 95.21943802 59.68930249 102.58844167 48.515625 105.01953125 C38.55020843 107.00600994 28.42340573 106.71457617 18.30639648 106.6171875 C14.98475087 106.58556925 11.66357923 106.57615942 8.34179688 106.5703125 C6.22916082 106.56115854 4.1165296 106.55078796 2.00390625 106.5390625 C0.51506172 106.53268768 0.51506172 106.53268768 -1.00386047 106.52618408 C-1.91629013 106.51657654 -2.82871979 106.50696899 -3.76879883 106.49707031 C-4.57182938 106.49024231 -5.37485992 106.48341431 -6.20222473 106.47637939 C-8.1640625 106.3359375 -8.1640625 106.3359375 -10.1640625 105.3359375 C-10.21032406 91.94096145 -10.24590018 78.54600429 -10.26768684 65.15096474 C-10.27814129 58.93166922 -10.29233071 52.71242821 -10.31494141 46.49316406 C-10.33661065 40.49558346 -10.3486186 34.4980554 -10.35381699 28.50043869 C-10.35752341 26.20780993 -10.36476071 23.91518417 -10.37552261 21.62257767 C-10.38995886 18.42100979 -10.39204375 15.21966138 -10.39111328 12.01806641 C-10.39830383 11.06213089 -10.40549438 10.10619537 -10.41290283 9.12129211 C-10.4101535 8.25188492 -10.40740417 7.38247772 -10.40457153 6.48672485 C-10.40641512 5.72901102 -10.40825871 4.97129719 -10.41015816 4.19062233 C-9.69552559 -1.19516215 -4.16880944 0.01170672 0 0 Z " fill="#2DA8CF" transform="translate(991.1640625,642.6640625)"/>
<path d="M0 0 C1.71350991 3.42701981 1.12858983 7.36099803 1.11352539 11.13134766 C1.11367142 12.07773605 1.11381744 13.02412445 1.1139679 13.99919128 C1.11326942 17.13750475 1.10548002 20.27575937 1.09765625 23.4140625 C1.09579184 25.58596769 1.09436805 27.75787329 1.09336853 29.92977905 C1.08954516 35.65414587 1.07971639 41.37848742 1.06866455 47.10284424 C1.05844657 52.94095518 1.05387008 58.7790702 1.04882812 64.6171875 C1.03809398 76.07813611 1.0210197 87.53906596 1 99 C-4.39346988 99.02464849 -9.78690725 99.04283531 -15.18041992 99.05493164 C-17.01668875 99.05997231 -18.85295354 99.06680477 -20.68920898 99.07543945 C-23.32276401 99.08751672 -25.95626616 99.09323081 -28.58984375 99.09765625 C-29.82890724 99.10539818 -29.82890724 99.10539818 -31.09300232 99.11329651 C-33.06236368 99.11349205 -35.03161614 99.06204152 -37 99 C-38.70521893 97.29478107 -38.16878541 95.07898913 -38.20532227 92.74584961 C-38.2352401 91.06421974 -38.2352401 91.06421974 -38.26576233 89.34861755 C-38.28247482 88.1288472 -38.29918732 86.90907684 -38.31640625 85.65234375 C-38.33718735 84.41078018 -38.35796844 83.16921661 -38.37937927 81.89002991 C-38.43383609 78.58400877 -38.48404205 75.27797755 -38.53222656 71.97186279 C-38.58239856 68.60032509 -38.63810701 65.22887947 -38.69335938 61.85742188 C-38.80070038 55.23835449 -38.90244198 48.6192184 -39 42 C-39.69935165 41.98969254 -40.39870331 41.97938507 -41.11924744 41.96876526 C-47.69713663 41.87094968 -54.2749342 41.76845843 -60.85266781 41.66066074 C-64.23467122 41.60540198 -67.61668324 41.55197744 -70.9987793 41.50268555 C-74.88339427 41.44599054 -78.76785878 41.38142415 -82.65234375 41.31640625 C-84.48199928 41.29133751 -84.48199928 41.29133751 -86.34861755 41.26576233 C-87.46970413 41.24581711 -88.59079071 41.22587189 -89.74584961 41.20532227 C-90.73846298 41.18977798 -91.73107635 41.1742337 -92.75376892 41.15821838 C-95 41 -95 41 -96 40 C-96.13815375 37.45320706 -96.21310685 34.93544211 -96.23828125 32.38671875 C-96.246353 31.62075882 -96.25442474 30.85479889 -96.26274109 30.06562805 C-96.2765975 28.44066644 -96.28731267 26.81567554 -96.29516602 25.19067383 C-96.31235851 22.70793185 -96.35622529 20.22652849 -96.40039062 17.74414062 C-96.41051908 16.16667648 -96.41903471 14.58920099 -96.42578125 13.01171875 C-96.44328934 12.26991867 -96.46079742 11.52811859 -96.47883606 10.76383972 C-96.46540677 7.5634845 -96.32201557 5.45864931 -94.45954895 2.80592346 C-91.11450613 0.34982626 -88.17298513 0.42681655 -84.17724609 0.45410156 C-83.00077515 0.43859505 -83.00077515 0.43859505 -81.80053711 0.42277527 C-79.20796211 0.39328865 -76.6161673 0.39184594 -74.0234375 0.390625 C-72.21463548 0.37563321 -70.40584709 0.35890396 -68.59707642 0.34051514 C-63.83009236 0.29677585 -59.06329197 0.27684045 -54.29614258 0.26177979 C-49.47465836 0.24233669 -44.65338011 0.2002375 -39.83203125 0.16015625 C-26.55488465 0.05531915 -13.27760181 -0.0169422 0 0 Z " fill="#2DA8CF" transform="translate(153,655)"/>
<path d="M0 0 C9.30074983 6.49527775 15.30198378 16.78097968 17.53125 27.796875 C18.52749751 33.769303 18.67942344 39.62017759 18.6328125 45.6640625 C18.64441406 47.16839844 18.64441406 47.16839844 18.65625 48.703125 C18.61853102 63.3003695 15.70982745 75.52794046 5.3203125 86.2890625 C-0.45371454 91.92626426 -5.03086607 93.02514411 -12.9921875 93.0390625 C-14.08660156 93.07580078 -14.08660156 93.07580078 -15.203125 93.11328125 C-23.69017371 93.15874758 -29.3819459 88.67066548 -35.47265625 83.046875 C-45.33891921 72.0843606 -47.45268116 56.3513388 -46.96484375 42.109375 C-46.10034502 28.15964997 -42.68876621 14.18406436 -32.3671875 4.2265625 C-22.54884748 -3.78270314 -11.35563497 -6.37197072 0 0 Z " fill="#FAFDFF" transform="translate(1200.6171875,651.3359375)"/>
<path d="M0 0 C8.001745 7.47989207 11.40330728 18.1166303 14.375 28.375 C14.94335571 30.26750488 14.94335571 30.26750488 15.52319336 32.19824219 C18.23451981 41.25420482 20.77264656 50.36037008 23.27026367 59.47729492 C25.66841004 68.16071987 28.38067717 76.72868016 31.21118164 85.28027344 C35.875 99.4877444 35.875 99.4877444 35.875 106.6875 C32.25001666 106.71643932 28.62506287 106.73427792 25 106.75 C23.45119141 106.76256836 23.45119141 106.76256836 21.87109375 106.77539062 C20.88496094 106.77861328 19.89882813 106.78183594 18.8828125 106.78515625 C17.97160645 106.79039307 17.06040039 106.79562988 16.12158203 106.80102539 C13.875 106.6875 13.875 106.6875 11.875 105.6875 C11.07000687 103.52013904 10.36694238 101.31466438 9.7109375 99.09765625 C9.51400299 98.4379332 9.31706848 97.77821014 9.11416626 97.09849548 C8.69876189 95.7015912 8.28710917 94.30356666 7.87890625 92.90454102 C7.25292943 90.76003579 6.61580722 88.61909898 5.9765625 86.47851562 C2.875 76.00929261 2.875 76.00929261 2.875 73.6875 C-9.665 74.0175 -22.205 74.3475 -35.125 74.6875 C-36.115 78.6475 -37.105 82.6075 -38.125 86.6875 C-38.99269027 90.08553559 -39.86543084 93.48142142 -40.75 96.875 C-40.9665625 97.71869141 -41.183125 98.56238281 -41.40625 99.43164062 C-43.00932899 105.57182899 -43.00932899 105.57182899 -44.125 106.6875 C-45.81108966 106.75955511 -47.50000659 106.77136068 -49.1875 106.75 C-50.56615234 106.73646484 -50.56615234 106.73646484 -51.97265625 106.72265625 C-52.68292969 106.71105469 -53.39320313 106.69945312 -54.125 106.6875 C-55.83324153 103.27101695 -53.88188672 99.69029776 -52.84375 96.18359375 C-52.5949408 95.32186554 -52.34613159 94.46013733 -52.08978271 93.57229614 C-51.27476425 90.754577 -50.4498619 87.93985163 -49.625 85.125 C-49.06268819 83.18699615 -48.50116664 81.24876283 -47.94042969 79.31030273 C-47.10452111 76.42103987 -46.26809523 73.53193938 -45.42889404 70.64363098 C-43.36110373 63.52568434 -41.35130803 56.39391661 -39.375 49.25 C-38.57808029 46.40184873 -37.77783395 43.55466262 -36.97558594 40.70800781 C-36.36178998 38.52836271 -35.75081048 36.34792381 -35.14160156 34.16699219 C-34.10759668 30.48243957 -33.05570296 26.80338769 -32 23.125 C-31.68708008 21.999729 -31.37416016 20.87445801 -31.05175781 19.71508789 C-26.95283579 5.59693563 -26.95283579 5.59693563 -20.9921875 1.06640625 C-20.33476562 0.79699219 -19.67734375 0.52757812 -19 0.25 C-18.33742188 -0.03746094 -17.67484375 -0.32492187 -16.9921875 -0.62109375 C-10.92531847 -2.8676122 -5.98006939 -2.51162915 0 0 Z " fill="#2DA8CF" transform="translate(346.125,642.3125)"/>
<path d="M0 0 C7.53151461 6.71287172 11.16142936 14.85864178 13.9375 24.375 C14.27346191 25.47320068 14.60942383 26.57140137 14.95556641 27.70288086 C17.21332205 35.1382005 19.35100692 42.61004109 21.43896484 50.09472656 C24.18602887 59.86492749 27.2775663 69.52921348 30.36083984 79.19750977 C36.875 99.71228357 36.875 99.71228357 36.875 106.5625 C33.25001666 106.59143932 29.62506287 106.60927792 26 106.625 C24.45119141 106.63756836 24.45119141 106.63756836 22.87109375 106.65039062 C21.88496094 106.65361328 20.89882813 106.65683594 19.8828125 106.66015625 C18.97160645 106.66539307 18.06040039 106.67062988 17.12158203 106.67602539 C14.875 106.5625 14.875 106.5625 12.875 105.5625 C12.07000687 103.39513904 11.36694238 101.18966438 10.7109375 98.97265625 C10.51400299 98.3129332 10.31706848 97.65321014 10.11416626 96.97349548 C9.69876189 95.5765912 9.28710917 94.17856666 8.87890625 92.77954102 C8.25292943 90.63503579 7.61580722 88.49409898 6.9765625 86.35351562 C3.875 75.88429261 3.875 75.88429261 3.875 73.5625 C-8.335 73.8925 -20.545 74.2225 -33.125 74.5625 C-35.45208822 80.65966322 -35.45208822 80.65966322 -37.44140625 86.81640625 C-37.64830078 87.52603516 -37.85519531 88.23566406 -38.06835938 88.96679688 C-38.27267578 89.67900391 -38.47699219 90.39121094 -38.6875 91.125 C-38.89568359 91.84107422 -39.10386719 92.55714844 -39.31835938 93.29492188 C-40.60091778 97.71351652 -41.8633219 102.13790537 -43.125 106.5625 C-46.425 106.5625 -49.725 106.5625 -53.125 106.5625 C-54.75496717 103.30256566 -53.03645693 100.19189342 -52.02734375 96.86328125 C-51.68352661 95.69634232 -51.68352661 95.69634232 -51.33276367 94.50582886 C-50.8392771 92.83261134 -50.34264741 91.16031832 -49.8432312 89.48886108 C-48.53657403 85.11421803 -47.25256708 80.73295331 -45.96875 76.3515625 C-45.58927467 75.05876625 -45.58927467 75.05876625 -45.20213318 73.73985291 C-43.3608032 67.44036263 -41.65602118 61.11688507 -40.0625 54.75 C-37.81269004 45.89472119 -35.32539362 37.1156381 -32.72390747 28.35806274 C-32.28903978 26.88985007 -31.85815438 25.42045094 -31.43161011 23.94979858 C-26.16210832 5.83095359 -26.16210832 5.83095359 -19.765625 0.65234375 C-12.49380818 -2.85286207 -7.39766714 -3.40292689 0 0 Z " fill="#2DA8CF" transform="translate(528.125,642.4375)"/>
<path d="M0 0 C14.51519226 -0.45518025 27.87162938 4.63161105 38.4921875 14.4296875 C43.4194096 19.16348836 47.27818666 23.75358549 49.9296875 30.1171875 C50.47302734 31.22320313 50.47302734 31.22320313 51.02734375 32.3515625 C57.30771367 45.40752864 58.13713755 61.44488732 53.94921875 75.328125 C49.2936188 88.06413405 41.25191928 99.56066354 28.9921875 106.16015625 C28.3115625 106.47597656 27.6309375 106.79179688 26.9296875 107.1171875 C26.1665625 107.50519531 25.4034375 107.89320313 24.6171875 108.29296875 C11.09876698 114.01078906 -7.37714954 113.09035344 -20.875 107.73046875 C-26.12230905 105.08115501 -30.61348266 101.93527684 -35.0703125 98.1171875 C-35.79863281 97.53453125 -36.52695313 96.951875 -37.27734375 96.3515625 C-46.9793788 87.81822383 -51.72907186 73.65425793 -53.0703125 61.1171875 C-53.4685794 45.46356676 -48.37342596 29.49746163 -37.90234375 17.66796875 C-27.69250342 8.18094897 -14.01301791 0.79318969 0 0 Z M-21.0703125 20.1171875 C-31.18383726 35.72932767 -33.49857705 54.78556169 -29.93896484 72.85424805 C-27.24220594 84.87496417 -22.24127244 93.77714474 -12.0703125 101.1171875 C-7.11447968 104.17938534 -3.22607425 104.58164595 2.4296875 104.4921875 C3.16316406 104.50378906 3.89664062 104.51539063 4.65234375 104.52734375 C11.70242299 104.4895079 16.36316979 102.1085281 21.4296875 97.1796875 C32.37428475 85.79213859 34.29683647 72.30750378 34.1796875 57.1171875 C34.18742187 56.11429688 34.19515625 55.11140625 34.203125 54.078125 C34.16265003 38.41431256 30.3407419 25.69085111 19.28125 14.1875 C13.68907887 9.26415996 7.89834414 7.37415807 0.46875 7.7421875 C-8.32557098 9.04104106 -15.38556022 13.33556279 -21.0703125 20.1171875 Z " fill="#2DA8CF" transform="translate(1185.0703125,639.8828125)"/>
<path d="M0 0 C2.45847541 2.45847541 2.24989147 3.84694367 2.29327393 7.20355225 C2.29236755 7.92713928 2.29146118 8.65072632 2.29052734 9.39624023 C2.29724457 10.15914871 2.30396179 10.92205719 2.31088257 11.70808411 C2.3299451 14.24165295 2.33379232 16.77495754 2.3359375 19.30859375 C2.34236489 21.07300424 2.34909321 22.83741365 2.35610962 24.6018219 C2.36810663 28.31001246 2.37178848 32.01810975 2.37060547 35.72631836 C2.37040332 40.45381776 2.39758561 45.18070892 2.43214989 49.90806484 C2.45452128 53.5586261 2.45843972 57.20904407 2.45738602 60.85966682 C2.45973121 62.60060768 2.46849311 64.34155315 2.48405075 66.08242607 C2.58776313 78.89893997 1.65812725 89.74027114 -6.86328125 100.0546875 C-14.43116413 106.94464302 -23.8075931 108.19862459 -33.5625 108.25 C-34.51447266 108.270625 -35.46644531 108.29125 -36.44726562 108.3125 C-48.54734297 108.37839559 -58.81372048 104.63638801 -67.8125 96.4375 C-76.69364636 84.42740884 -76.15522783 69.47446234 -76.1328125 55.31640625 C-76.13348719 53.80948369 -76.13445859 52.30256123 -76.13571167 50.79563904 C-76.13717771 47.6564733 -76.13506736 44.51733621 -76.13037109 41.37817383 C-76.12463984 37.35084316 -76.12798102 33.32357865 -76.13394356 29.29625034 C-76.13754945 26.19338986 -76.13641105 23.0905452 -76.13381577 19.98768425 C-76.13314835 18.50168792 -76.13396845 17.01569017 -76.13629532 15.52969551 C-76.13882601 13.46189656 -76.13497696 11.39420679 -76.12939453 9.32641602 C-76.12859894 8.14999039 -76.12780334 6.97356476 -76.12698364 5.76148987 C-76 3 -76 3 -75 1 C-71.35418313 0.97112488 -67.70839537 0.95324415 -64.0625 0.9375 C-62.50112305 0.92493164 -62.50112305 0.92493164 -60.90820312 0.91210938 C-59.91884766 0.90888672 -58.92949219 0.90566406 -57.91015625 0.90234375 C-56.53549194 0.89448853 -56.53549194 0.89448853 -55.13305664 0.88647461 C-53 1 -53 1 -52 2 C-51.89686767 4.28331741 -51.86425774 6.56983155 -51.8581543 8.85546875 C-51.85294266 9.93127953 -51.85294266 9.93127953 -51.84762573 11.02882385 C-51.84025405 12.59265359 -51.83491623 14.1564939 -51.83133507 15.72033691 C-51.82417883 18.20133963 -51.8085152 20.68214349 -51.78999329 23.16308594 C-51.73750954 30.21953466 -51.68962016 37.27588019 -51.67407227 44.33251953 C-51.66394501 48.64570623 -51.63449195 52.95840111 -51.59275246 57.27139282 C-51.58049491 58.9106574 -51.57531156 60.54999166 -51.57755089 62.18930054 C-51.73396924 76.25251078 -51.73396924 76.25251078 -44.96484375 88.15625 C-43.96130859 88.82140625 -43.96130859 88.82140625 -42.9375 89.5 C-42.26589844 89.9640625 -41.59429688 90.428125 -40.90234375 90.90625 C-37.0068587 93.14595393 -33.6005702 93.19360294 -29.1875 93.25 C-27.38345703 93.28867187 -27.38345703 93.28867187 -25.54296875 93.328125 C-21.00966832 92.9082824 -17.76680002 91.57375299 -14.35546875 88.53515625 C-10.08604563 83.15197058 -9.85225317 79.22812838 -9.84228516 72.52514648 C-9.83720444 71.77835632 -9.83212372 71.03156616 -9.82688904 70.262146 C-9.81620822 68.64433899 -9.80757911 67.02651743 -9.80076981 65.4086895 C-9.78896191 62.84929088 -9.76950667 60.29005956 -9.74765015 57.73072815 C-9.68607999 50.45538874 -9.63190652 43.18006936 -9.59863281 35.90454102 C-9.5777217 31.45182913 -9.54245444 26.99942725 -9.49787521 22.54689217 C-9.48369412 20.84963686 -9.47498803 19.15232677 -9.47182083 17.45501518 C-9.46692761 15.08483122 -9.44381452 12.71547543 -9.41650391 10.34545898 C-9.42101311 9.2910537 -9.42101311 9.2910537 -9.4256134 8.21534729 C-9.37676558 5.36966799 -9.3034094 3.44093331 -7.66537476 1.06044006 C-5.08561112 -0.58224408 -2.97416085 -0.31640009 0 0 Z " fill="#2DA8CF" transform="translate(952,644)"/>
<path d="M0 0 C5.03958701 0.10299886 9.78912253 1.02097661 14.6875 2.125 C15.4081665 2.28178223 16.12883301 2.43856445 16.87133789 2.60009766 C26.28277981 4.86841283 33.15589402 11.17996248 38.6875 18.9375 C46.64018781 32.63817009 45.29946954 51.88361972 41.90234375 66.84375 C39.476916 75.72061917 34.77853936 82.38950333 26.9375 87.375 C16.99683538 91.50079116 5.51528225 90.94088959 -5.0625 90.375 C-6.8574498 88.5800502 -6.19518009 86.14222598 -6.20913696 83.75166321 C-6.20868378 82.94488632 -6.20823059 82.13810944 -6.20776367 81.30688477 C-6.21112228 80.46139069 -6.2144809 79.61589661 -6.21794128 78.74478149 C-6.22748082 75.93530835 -6.22939589 73.12589461 -6.23046875 70.31640625 C-6.23367922 68.37206497 -6.23704313 66.42772394 -6.24055481 64.48338318 C-6.24655359 60.40192098 -6.24839394 56.32047997 -6.24780273 52.23901367 C-6.24770106 46.99849492 -6.26135502 41.75811151 -6.27857494 36.51762486 C-6.28967101 32.50029369 -6.29172268 28.48299549 -6.29119301 24.46565056 C-6.29237668 22.53307567 -6.29681997 20.60050003 -6.30452538 18.66794014 C-6.31427725 15.96936579 -6.31146638 13.27108847 -6.30541992 10.57250977 C-6.31103943 9.76775711 -6.31665894 8.96300446 -6.32244873 8.13386536 C-6.29095288 2.62734753 -5.84780839 0.10030546 0 0 Z " fill="#FAFDFF" transform="translate(1008.0625,650.625)"/>
<path d="M0 0 C1.14726059 0.00142502 2.29452118 0.00285004 3.47654724 0.00431824 C4.77451736 0.00124161 6.07248749 -0.00183502 7.40979004 -0.00500488 C8.83235348 0.00189235 10.25491517 0.00915928 11.67747498 0.01676941 C13.12953653 0.01796109 14.58159887 0.0184144 16.03366089 0.01815796 C19.07766033 0.01972312 22.12154221 0.02801593 25.16551208 0.04142761 C29.07544649 0.05843264 32.9852518 0.06224155 36.89521885 0.06148243 C39.89340456 0.06175378 42.89156181 0.06722912 45.88973808 0.07448387 C47.33190127 0.07767498 48.77406768 0.07963897 50.21623421 0.08037758 C52.22749611 0.08253559 54.23874609 0.09206467 56.24998474 0.10197449 C57.96968224 0.10769218 57.96968224 0.10769218 59.72412109 0.11352539 C62.29856873 0.24723816 62.29856873 0.24723816 63.29856873 1.24723816 C63.37036837 2.76651854 63.3824888 4.28891298 63.36106873 5.80973816 C63.35204529 6.63602722 63.34302185 7.46231628 63.33372498 8.31364441 C63.32212341 8.95173035 63.31052185 9.58981628 63.29856873 10.24723816 C62.69794617 10.27229431 62.09732361 10.29735046 61.47850037 10.32316589 C58.77245435 10.43879096 56.06678589 10.56166752 53.36106873 10.68473816 C51.94277771 10.74371277 51.94277771 10.74371277 50.49583435 10.80387878 C49.59671326 10.84577332 48.69759216 10.88766785 47.77122498 10.93083191 C46.52224426 10.98581848 46.52224426 10.98581848 45.24803162 11.04191589 C43.29518015 11.04090919 43.29518015 11.04090919 42.29856873 12.24723816 C42.17327685 15.16841548 42.11246201 18.06709057 42.09324646 20.9896698 C42.08334686 21.90665146 42.07344727 22.82363312 42.06324768 23.7684021 C42.03153224 26.81470615 42.00683573 29.86102583 41.98216248 32.90739441 C41.96160161 35.01347267 41.94060538 37.11954672 41.91918945 39.22561646 C41.86387915 44.78062034 41.81450952 50.33566201 41.76634216 55.89073181 C41.71619237 61.55452352 41.66047235 67.21826006 41.60520935 72.88200378 C41.49751828 84.0037015 41.39609779 95.12544702 41.29856873 106.24723816 C37.48608447 106.27611052 33.67362803 106.29399308 29.86106873 106.30973816 C28.77245544 106.31811707 27.68384216 106.32649597 26.5622406 106.33512878 C25.52776794 106.33835144 24.49329529 106.3415741 23.42747498 106.34489441 C22.46913757 106.35013123 21.51080017 106.35536804 20.52342224 106.36076355 C18.29856873 106.24723816 18.29856873 106.24723816 17.29856873 105.24723816 C17.17327685 102.32606084 17.11246201 99.42738575 17.09324646 96.50480652 C17.08334686 95.58782486 17.07344727 94.6708432 17.06324768 93.72607422 C17.03153224 90.67977017 17.00683573 87.63345049 16.98216248 84.58708191 C16.96160161 82.48100365 16.94060538 80.3749296 16.91918945 78.26885986 C16.86387915 72.71385598 16.81450952 67.15881431 16.76634216 61.60374451 C16.71619237 55.9399528 16.66047235 50.27621625 16.60520935 44.61247253 C16.49751828 33.49077482 16.39609779 22.3690293 16.29856873 11.24723816 C15.69794617 11.22218201 15.09732361 11.19712585 14.47850037 11.17131042 C11.77245435 11.05568536 9.06678589 10.9328088 6.36106873 10.80973816 C5.41554138 10.77042175 4.47001404 10.73110535 3.49583435 10.69059753 C2.59671326 10.648703 1.69759216 10.60680847 0.77122498 10.56364441 C-0.06142883 10.52698669 -0.89408264 10.49032898 -1.75196838 10.45256042 C-3.70143127 10.24723816 -3.70143127 10.24723816 -4.70143127 9.24723816 C-4.88893127 5.80973816 -4.88893127 5.80973816 -4.70143127 2.24723816 C-2.70143127 0.24723816 -2.70143127 0.24723816 0 0 Z " fill="#2DA8CF" transform="translate(398.70143127441406,642.7527618408203)"/>
<path d="M0 0 C1.15027679 0.00444122 2.30055359 0.00888245 3.48568726 0.01345825 C4.78688507 0.01360931 6.08808289 0.01376038 7.42871094 0.01391602 C8.85444286 0.02413011 10.28017325 0.03456211 11.7059021 0.04519653 C13.16035773 0.04892608 14.61481587 0.05177333 16.0692749 0.05377197 C19.89982016 0.06141303 23.73021406 0.08106546 27.56069946 0.10317993 C31.46845451 0.12362825 35.37623399 0.13277151 39.2840271 0.14285278 C46.95336698 0.16431101 54.62258209 0.19845252 62.2918396 0.24050903 C63.05470196 3.64796091 63.40851239 5.89049066 62.2918396 9.24050903 C61.43634521 9.27809326 61.43634521 9.27809326 60.56356812 9.31643677 C57.99357803 9.43207452 55.42398433 9.55494528 52.8543396 9.67800903 C51.95650757 9.71732544 51.05867554 9.75664185 50.13363647 9.79714966 C48.85263062 9.85999146 48.85263062 9.85999146 47.54574585 9.92410278 C46.75498657 9.9607605 45.96422729 9.99741821 45.14950562 10.03518677 C43.27782519 10.0461416 43.27782519 10.0461416 42.2918396 11.24050903 C42.16656773 14.13116139 42.10573758 16.9990769 42.08651733 19.8911438 C42.07661774 20.79837189 42.06671814 21.70559998 42.05651855 22.64031982 C42.02480365 25.65415797 42.00010682 28.66801192 41.97543335 31.68191528 C41.95487244 33.76557334 41.93387621 35.84922714 41.91246033 37.93287659 C41.85715051 43.42869635 41.80778066 48.92455429 41.75961304 54.42044067 C41.7094629 60.02390967 41.65374305 65.62732291 41.59848022 71.23074341 C41.49078974 82.23395104 41.38936912 93.23720698 41.2918396 104.24050903 C37.47935534 104.26938139 33.6668989 104.28726395 29.8543396 104.30300903 C28.76572632 104.31138794 27.67711304 104.31976685 26.55551147 104.32839966 C25.52103882 104.33162231 24.48656616 104.33484497 23.42074585 104.33816528 C22.46240845 104.3434021 21.50407104 104.34863892 20.51669312 104.35403442 C18.2918396 104.24050903 18.2918396 104.24050903 17.2918396 103.24050903 C17.16656773 100.34985667 17.10573758 97.48194116 17.08651733 94.58987427 C17.07661774 93.68264618 17.06671814 92.77541809 17.05651855 91.84069824 C17.02480365 88.82686009 17.00010682 85.81300615 16.97543335 82.79910278 C16.95487244 80.71544473 16.93387621 78.63179092 16.91246033 76.54814148 C16.85715051 71.05232172 16.80778066 65.55646377 16.75961304 60.06057739 C16.7094629 54.45710839 16.65374305 48.85369515 16.59848022 43.25027466 C16.49078974 32.24706703 16.38936912 21.24381108 16.2918396 10.24050903 C15.69121704 10.21545288 15.09059448 10.19039673 14.47177124 10.1645813 C11.76572523 10.04895623 9.06005677 9.92607967 6.3543396 9.80300903 C5.40881226 9.76369263 4.46328491 9.72437622 3.48910522 9.68386841 C2.58998413 9.64197388 1.69086304 9.60007935 0.76449585 9.55691528 C-0.06815796 9.52025757 -0.90081177 9.48359985 -1.75869751 9.4458313 C-3.7081604 9.24050903 -3.7081604 9.24050903 -4.7081604 8.24050903 C-4.8956604 5.30300903 -4.8956604 5.30300903 -4.7081604 2.24050903 C-2.7081604 0.24050903 -2.7081604 0.24050903 0 0 Z " fill="#2DA8CF" transform="translate(790.7081604003906,644.7594909667969)"/>
<path d="M0 0 C1.56125851 0.00399299 3.12251789 0.01875614 4.68359375 0.04296875 C5.47701172 0.04361328 6.27042969 0.04425781 7.08789062 0.04492188 C12.98083853 0.09021353 12.98083853 0.09021353 14.12109375 1.23046875 C14.21644588 2.59655201 14.24298045 3.9675233 14.24134827 5.33692932 C14.24272293 6.22179016 14.2440976 7.106651 14.24551392 8.01832581 C14.24191864 8.99655807 14.23832336 9.97479034 14.23461914 10.98266602 C14.23476517 12.00693695 14.23491119 13.03120789 14.23506165 14.08651733 C14.23436203 17.48999104 14.22656738 20.89341079 14.21875 24.296875 C14.21688599 26.64957143 14.21546201 29.00226825 14.21446228 31.35496521 C14.21063574 37.5610358 14.2008043 43.76708315 14.1897583 49.97314453 C14.17954709 56.30045253 14.17496529 62.62776427 14.16992188 68.95507812 C14.15918215 81.38021857 14.14210411 93.80534173 14.12109375 106.23046875 C10.97527952 106.25935389 7.82949906 106.27722798 4.68359375 106.29296875 C3.78576172 106.30134766 2.88792969 106.30972656 1.96289062 106.31835938 C0.68188477 106.32319336 0.68188477 106.32319336 -0.625 106.328125 C-1.41575928 106.33336182 -2.20651855 106.33859863 -3.02124023 106.34399414 C-4.87890625 106.23046875 -4.87890625 106.23046875 -5.87890625 105.23046875 C-5.97847665 103.89440742 -6.00964928 102.55315733 -6.01261902 101.21339417 C-6.016884 100.34825195 -6.02114899 99.48310974 -6.02554321 98.5917511 C-6.02509003 97.6353624 -6.02463684 96.67897369 -6.02416992 95.69360352 C-6.02752853 94.69205231 -6.03088715 93.6905011 -6.03434753 92.65859985 C-6.04388922 89.32967914 -6.04580224 86.00080855 -6.046875 82.671875 C-6.05008529 80.3688098 -6.05344918 78.06574481 -6.05696106 75.76268005 C-6.06296035 70.92796353 -6.06480013 66.09326491 -6.06420898 61.25854492 C-6.0641073 55.04948833 -6.07776215 48.84054595 -6.09498119 42.63151646 C-6.10607466 37.87301603 -6.10812901 33.11454345 -6.10759926 28.35603142 C-6.10878329 26.06619816 -6.11322856 23.77636427 -6.12093163 21.48654366 C-6.13067833 18.28985617 -6.12787462 15.09341964 -6.12182617 11.89672852 C-6.12744568 10.94236404 -6.13306519 9.98799957 -6.13885498 9.00471497 C-6.13466049 8.13675293 -6.130466 7.26879089 -6.12614441 6.37452698 C-6.12668918 5.61811196 -6.12723394 4.86169695 -6.12779522 4.08236027 C-5.59576587 0.12372506 -3.67716515 0.21848212 0 0 Z " fill="#2DA8CF" transform="translate(1098.87890625,642.76953125)"/>
<path d="M0 0 C1.09445938 0.00212242 1.09445938 0.00212242 2.21102905 0.00428772 C4.54437335 0.00989094 6.87762214 0.0224439 9.2109375 0.03515625 C10.79166528 0.04017084 12.37239457 0.04473382 13.953125 0.04882812 C17.83076604 0.05986141 21.70833557 0.07712814 25.5859375 0.09765625 C27.22539713 3.3765755 26.70623928 7.00379159 26.68359375 10.60546875 C26.6821788 11.44608856 26.68076385 12.28670837 26.67930603 13.15280151 C26.67369987 15.842789 26.66114636 18.53269384 26.6484375 21.22265625 C26.64342329 23.04426963 26.63886025 24.86588432 26.63476562 26.6875 C26.62372844 31.15758402 26.6064597 35.62760611 26.5859375 40.09765625 C21.19246762 40.12230474 15.79903025 40.14049156 10.40551758 40.15258789 C8.56924875 40.15762856 6.73298396 40.16446102 4.89672852 40.1730957 C2.26317349 40.18517297 -0.37032866 40.19088706 -3.00390625 40.1953125 C-4.24296974 40.20305443 -4.24296974 40.20305443 -5.50706482 40.21095276 C-7.47642618 40.2111483 -9.44567864 40.15969777 -11.4140625 40.09765625 C-13.4050588 38.10665995 -12.60175841 34.17574351 -12.6171875 31.44921875 C-12.62573761 30.29672134 -12.62573761 30.29672134 -12.63446045 29.12094116 C-12.6439243 27.49177432 -12.65044991 25.86258822 -12.65429688 24.23339844 C-12.66399545 21.73989422 -12.69500161 19.24721654 -12.7265625 16.75390625 C-12.73309301 15.17318199 -12.73834329 13.59245182 -12.7421875 12.01171875 C-12.7545343 11.26475739 -12.7668811 10.51779602 -12.77960205 9.74819946 C-12.75732735 4.57291832 -12.75732735 4.57291832 -11.01855469 2.16552734 C-7.39257559 -0.24774602 -4.22467848 -0.03064568 0 0 Z " fill="#2DA8CF" transform="translate(69.4140625,716.90234375)"/>
<path d="M0 0 C0.90967529 0.00708984 1.81935059 0.01417969 2.7565918 0.02148438 C3.75754883 0.0240625 4.75850586 0.02664063 5.78979492 0.02929688 C6.83458008 0.05765625 7.87936523 0.08601562 8.95581055 0.11523438 C10.50558594 0.11136719 10.50558594 0.11136719 12.08666992 0.10742188 C18.4966184 0.18965341 23.45623847 0.60604539 28.32299805 5.20117188 C31.81746976 10.4314596 32.49407716 15.22659138 32.27612305 21.47460938 C31.26692132 26.48324019 28.55264188 29.46654217 24.64331055 32.61523438 C20.28617583 34.79380173 14.42923717 33.84491197 9.64331055 33.86523438 C8.42901367 33.88585937 7.2147168 33.90648437 5.96362305 33.92773438 C4.80604492 33.93289063 3.6484668 33.93804688 2.45581055 33.94335938 C0.85672852 33.95737793 0.85672852 33.95737793 -0.7746582 33.97167969 C-1.62672852 33.85405273 -2.47879883 33.73642578 -3.35668945 33.61523438 C-6.52195359 28.86733817 -5.6849046 23.82225301 -5.66918945 18.24023438 C-5.69335938 16.53480469 -5.69335938 16.53480469 -5.71801758 14.79492188 C-5.71866211 13.69664062 -5.71930664 12.59835937 -5.7199707 11.46679688 C-5.72295166 10.46471191 -5.72593262 9.46262695 -5.72900391 8.43017578 C-5.18580973 4.32327159 -4.27680884 1.11649832 0 0 Z " fill="#2DA8CF" transform="translate(1015.356689453125,778.384765625)"/>
<path d="M0 0 C1.91369967 2.8705495 2.62908038 4.78077315 3.515625 8.05859375 C3.79462646 9.0755835 4.07362793 10.09257324 4.36108398 11.14038086 C4.80109741 12.77245483 4.80109741 12.77245483 5.25 14.4375 C7.77719825 23.66107104 10.40322357 32.84130168 13.22167969 41.98022461 C15 47.79635658 15 47.79635658 15 50 C4.44 50 -6.12 50 -17 50 C-18.24875904 46.25372287 -17.57995517 44.66981353 -16.5234375 40.890625 C-16.18465576 39.66714355 -15.84587402 38.44366211 -15.49682617 37.18310547 C-15.12353183 35.87188574 -14.74957854 34.56085345 -14.375 33.25 C-14.00152393 31.92469406 -13.62823295 30.59933595 -13.25512695 29.27392578 C-4.96927366 0 -4.96927366 0 0 0 Z " fill="#FAFDFF" transform="translate(515,657)"/>
<path d="M0 0 C1.91369967 2.8705495 2.62908038 4.78077315 3.515625 8.05859375 C3.79462646 9.0755835 4.07362793 10.09257324 4.36108398 11.14038086 C4.80109741 12.77245483 4.80109741 12.77245483 5.25 14.4375 C7.77719825 23.66107104 10.40322357 32.84130168 13.22167969 41.98022461 C15 47.79635658 15 47.79635658 15 50 C4.44 50 -6.12 50 -17 50 C-18.275661 46.17301701 -17.49053013 44.56127564 -16.3203125 40.7265625 C-15.75812012 38.84759277 -15.75812012 38.84759277 -15.18457031 36.93066406 C-14.98738403 36.28021118 -14.79019775 35.6297583 -14.58703613 34.95959473 C-13.66066208 31.86725066 -12.79790258 28.75752986 -11.9296875 25.6484375 C-11.24479167 23.22395833 -10.55989583 20.79947917 -9.875 18.375 C-9.52824219 17.13621094 -9.18148438 15.89742187 -8.82421875 14.62109375 C-8.31955078 12.84025391 -8.31955078 12.84025391 -7.8046875 11.0234375 C-7.35585205 9.42894775 -7.35585205 9.42894775 -6.89794922 7.80224609 C-6.11162311 5.34834423 -5.32450329 3.20622762 -4 1 C-2 0 -2 0 0 0 Z " fill="#FAFDFF" transform="translate(332,657)"/>
<path d="M0 0 C4.96837798 0.07685889 8.61810871 0.29733609 12.75 3.3125 C15.21324069 7.00736103 15.13991688 8.94543092 14.75 13.3125 C13.25 15.25 13.25 15.25 11.75 16.3125 C12.41 16.9725 13.07 17.6325 13.75 18.3125 C16.50777063 22.44915594 16.37388198 24.39942938 15.75 29.3125 C14.32421875 31.5390625 14.32421875 31.5390625 11.75 33.3125 C8.50732209 33.8249596 5.33629922 33.73436968 2.0625 33.625 C1.18271484 33.61533203 0.30292969 33.60566406 -0.60351562 33.59570312 C-7.08167558 33.48082442 -7.08167558 33.48082442 -8.25 32.3125 C-8.46809756 28.05501574 -8.43579161 23.79204276 -8.43530273 19.52954102 C-8.43748743 17.38733 -8.45563512 15.24563529 -8.47460938 13.10351562 C-8.47754359 11.7473976 -8.4795282 10.39127712 -8.48046875 9.03515625 C-8.48457764 7.79515869 -8.48868652 6.55516113 -8.49291992 5.27758789 C-8.02713212 -0.40783205 -4.93460336 0.01689933 0 0 Z " fill="#2DA8CF" transform="translate(896.25,778.6875)"/>
<path d="M0 0 C8.08457323 6.90557297 16.06246942 13.92604335 24 21 C24.01981934 20.43490723 24.03963867 19.86981445 24.06005859 19.28759766 C24.15518236 16.73292003 24.26491058 14.17907459 24.375 11.625 C24.4059375 10.73554687 24.436875 9.84609375 24.46875 8.9296875 C24.50742187 8.07890625 24.54609375 7.228125 24.5859375 6.3515625 C24.6173584 5.56604004 24.6487793 4.78051758 24.68115234 3.97119141 C25 2 25 2 27 0 C29.475 0.495 29.475 0.495 32 1 C32 11.89 32 22.78 32 34 C27 35 27 35 24.7109375 33.515625 C23.94007813 32.76796875 23.16921875 32.0203125 22.375 31.25 C21.51519531 30.43015625 20.65539062 29.6103125 19.76953125 28.765625 C17.84479859 26.84360705 15.92478314 24.91791656 14.01171875 22.984375 C13.51945801 22.48776367 13.02719727 21.99115234 12.52001953 21.47949219 C11.11974703 20.05811005 9.73337981 18.62306973 8.34765625 17.1875 C6.12176343 14.80982752 6.12176343 14.80982752 3 14 C3 20.6 3 27.2 3 34 C1.02 34 -0.96 34 -3 34 C-5.61664071 31.38335929 -4.27440137 24.30321027 -4.29516602 20.75415039 C-4.31234603 18.70585688 -4.35620989 16.65919178 -4.40039062 14.61132812 C-4.40876953 13.32033203 -4.41714844 12.02933594 -4.42578125 10.69921875 C-4.44036377 9.51158936 -4.45494629 8.32395996 -4.4699707 7.1003418 C-3.9134322 3.42892233 -2.84975313 2.28353966 0 0 Z " fill="#2DA8CF" transform="translate(973,778)"/>
<path d="M0 0 C1.9140625 0.06640625 1.9140625 0.06640625 4 1 C5.7109375 3.15234375 5.7109375 3.15234375 7.375 5.9375 C7.98085937 6.9378125 8.58671875 7.938125 9.2109375 8.96875 C9.80132813 9.9690625 10.39171875 10.969375 11 12 C11.50789063 12.8353125 12.01578125 13.670625 12.5390625 14.53125 C16.44736482 20.96845383 20.21812731 27.48801802 24 34 C22.39219991 33.7978938 20.78860345 33.56217135 19.1875 33.3125 C18.29417969 33.18488281 17.40085937 33.05726563 16.48046875 32.92578125 C14 32 14 32 12.59375 29.46875 C11.18710597 26.65745664 11.18710597 26.65745664 7.86328125 26.29296875 C6.69152344 26.25816406 5.51976562 26.22335937 4.3125 26.1875 C3.13300781 26.13980469 1.95351562 26.09210937 0.73828125 26.04296875 C-0.61716797 26.02169922 -0.61716797 26.02169922 -2 26 C-1.42655063 23.13275314 -1.1385485 22.1385485 1 20 C3.625 19.875 3.625 19.875 6 20 C4.35 17.36 2.7 14.72 1 12 C0.154375 13.258125 -0.69125 14.51625 -1.5625 15.8125 C-2.11164063 16.62460937 -2.66078125 17.43671875 -3.2265625 18.2734375 C-4.44123364 20.1409275 -5.60074583 22.04513315 -6.7109375 23.9765625 C-11.67135803 32.48334702 -11.67135803 32.48334702 -15.9375 33.6875 C-17.4534375 33.8421875 -17.4534375 33.8421875 -19 34 C-18.50817933 28.82001783 -16.6072164 25.13109241 -13.875 20.8125 C-13.47337646 20.16192627 -13.07175293 19.51135254 -12.65795898 18.84106445 C-11.4482542 16.88784783 -10.22515237 14.94355316 -9 13 C-8.31292969 11.89398437 -7.62585937 10.78796875 -6.91796875 9.6484375 C-2.3350265 2.3350265 -2.3350265 2.3350265 0 0 Z " fill="#2DA8CF" transform="translate(1127,779)"/>
<path d="M0 0 C3.91022921 3.61576361 6.6648247 7.36956605 9.3125 12 C10.08908406 13.32726771 10.86644422 14.65408157 11.64453125 15.98046875 C12.03334473 16.64739746 12.4221582 17.31432617 12.82275391 18.00146484 C14.66814397 21.13426514 16.58253332 24.22346777 18.5 27.3125 C21.89230769 32.78461538 21.89230769 32.78461538 23 35 C21.39219991 34.7978938 19.78860345 34.56217135 18.1875 34.3125 C17.29417969 34.18488281 16.40085937 34.05726563 15.48046875 33.92578125 C13 33 13 33 11.55859375 30.4609375 C11.04425781 29.64882813 10.52992187 28.83671875 10 28 C7.08146296 27.25443268 7.08146296 27.25443268 3.875 27.3125 C1.91440695 27.26783421 -0.04697598 27.17781263 -2 27 C-2.33 26.34 -2.66 25.68 -3 25 C-1.8125 23 -1.8125 23 0 21 C2.6875 20.75 2.6875 20.75 5 21 C3.35 18.36 1.7 15.72 0 13 C-0.42410156 13.67804687 -0.84820313 14.35609375 -1.28515625 15.0546875 C-3.1718103 18.04845503 -5.08569288 21.02385065 -7 24 C-7.598125 24.96421875 -8.19625 25.9284375 -8.8125 26.921875 C-9.39 27.81390625 -9.9675 28.7059375 -10.5625 29.625 C-11.07941406 30.44226563 -11.59632812 31.25953125 -12.12890625 32.1015625 C-14.59771523 34.60645011 -16.56491301 34.72056796 -20 35 C-19.50589937 29.86292206 -17.65326782 26.21821989 -14.9375 21.9375 C-14.53845459 21.29280762 -14.13940918 20.64811523 -13.72827148 19.98388672 C-12.90160056 18.64926137 -12.07124907 17.31690903 -11.23730469 15.98681641 C-10.03650727 14.05862197 -8.86168918 12.11713843 -7.6953125 10.16796875 C-2.25351551 1.12675776 -2.25351551 1.12675776 0 0 Z " fill="#2DA8CF" transform="translate(1189,778)"/>
<path d="M0 0 C1.40378906 0.00580078 1.40378906 0.00580078 2.8359375 0.01171875 C6.99559127 0.46030886 9.77655653 1.57871105 12.9375 4.3125 C15.28976069 8.49429678 15.6638371 12.61481755 14.625 17.3125 C13.1328125 19.6015625 13.1328125 19.6015625 10.625 21.3125 C7.73202857 21.81297658 4.92625282 21.73547095 2 21.625 C1.22398438 21.61533203 0.44796875 21.60566406 -0.3515625 21.59570312 C-6.03555888 21.48222056 -6.03555888 21.48222056 -8.375 20.3125 C-8.45589542 17.54108283 -8.51544062 14.77202181 -8.5625 12 C-8.60020508 10.82147461 -8.60020508 10.82147461 -8.63867188 9.61914062 C-8.64833984 8.86181641 -8.65800781 8.10449219 -8.66796875 7.32421875 C-8.6836792 6.62772217 -8.69938965 5.93122559 -8.71557617 5.21362305 C-7.83998785 0.32602002 -4.35596833 -0.07757204 0 0 Z " fill="#FAFDFF" transform="translate(1025.375,784.6875)"/>
<path d="M0 0 C0.80824219 0.11085938 1.61648438 0.22171875 2.44921875 0.3359375 C3.37154297 0.47902344 3.37154297 0.47902344 4.3125 0.625 C-0.55882558 5.82108062 -6.29054223 11.42652111 -12.6875 14.625 C-12.6875 15.615 -12.6875 16.605 -12.6875 17.625 C-10.43441495 19.55159361 -8.19950342 21.31779202 -5.8125 23.0625 C-4.51803041 24.01220492 -3.22874942 24.96903136 -1.9453125 25.93359375 C-1.3692627 26.35439209 -0.79321289 26.77519043 -0.19970703 27.20874023 C1.54759104 28.84517487 2.36408115 30.44352034 3.3125 32.625 C-1.34147156 33.43049508 -3.60576359 33.27822921 -7.71484375 30.796875 C-21.00226893 20.8764735 -21.00226893 20.8764735 -22.42578125 16.19921875 C-21.23585915 12.05023111 -18.16803224 10.06219269 -14.875 7.4375 C-14.23240234 6.90447266 -13.58980469 6.37144531 -12.92773438 5.82226562 C-4.98372704 -0.72227928 -4.98372704 -0.72227928 0 0 Z " fill="#2DA8CF" transform="translate(1097.6875,779.375)"/>
<path d="M0 0 C0.66 0 1.32 0 2 0 C10 15.71428571 10 15.71428571 10 19 C10.66 19 11.32 19 12 19 C12.0825 17.700625 12.165 16.40125 12.25 15.0625 C12.80338263 9.85905135 14.64679993 5.62978432 17 1 C18.32 1 19.64 1 21 1 C20.3707278 4.52676849 19.45707634 7.76381552 18.22265625 11.125 C17.87396484 12.07890625 17.52527344 13.0328125 17.16601562 14.015625 C16.80185547 15.00046875 16.43769531 15.9853125 16.0625 17 C15.70220703 17.98484375 15.34191406 18.9696875 14.97070312 19.984375 C13.98914272 22.6597146 13.00538161 25.33351928 12 28 C11.7002124 28.89074219 11.4004248 29.78148437 11.09155273 30.69921875 C10 33 10 33 6.625 34.9375 C3 36 3 36 0.5625 35.1875 C0.046875 34.795625 -0.46875 34.40375 -1 34 C-1 33.67 -1 33.34 -1 33 C-0.05125 32.731875 0.8975 32.46375 1.875 32.1875 C5.25267273 31.25013412 5.25267273 31.25013412 7 28 C6.68807411 21.39209625 4.03284683 15.97305112 1.3515625 10.05273438 C1.03703125 9.33021484 0.7225 8.60769531 0.3984375 7.86328125 C0.10630371 7.21657471 -0.18583008 6.56986816 -0.48681641 5.90356445 C-1.10765495 3.60067285 -0.74646461 2.23474008 0 0 Z " fill="#2DA8CF" transform="translate(917,788)"/>
<path d="M0 0 C1.65 0.33 3.3 0.66 5 1 C5 11.56 5 22.12 5 33 C3.02 33 1.04 33 -1 33 C-3.40594247 27.33501194 -3.33245107 21.98267569 -3.3125 15.9375 C-3.32861328 14.95716797 -3.34472656 13.97683594 -3.36132812 12.96679688 C-3.36732635 4.13141623 -3.36732635 4.13141623 0 0 Z " fill="#2DA8CF" transform="translate(1068,779)"/>
<path d="M0 0 C1.65 0.33 3.3 0.66 5 1 C5 11.56 5 22.12 5 33 C3.02 33 1.04 33 -1 33 C-3.43016037 30.56983963 -2.17322555 24.74224869 -2.18554688 21.34570312 C-2.18546631 20.64324463 -2.18538574 19.94078613 -2.18530273 19.21704102 C-2.18748743 17.07483 -2.20563512 14.93313529 -2.22460938 12.79101562 C-2.22754359 11.4348976 -2.2295282 10.07877712 -2.23046875 8.72265625 C-2.23457764 7.48265869 -2.23868652 6.24266113 -2.24291992 4.96508789 C-2 2 -2 2 0 0 Z " fill="#2DA8CF" transform="translate(1054,779)"/>
<path d="M0 0 C1.65 0.33 3.3 0.66 5 1 C5 11.56 5 22.12 5 33 C3.02 33 1.04 33 -1 33 C-3.43016037 30.56983963 -2.17322555 24.74224869 -2.18554688 21.34570312 C-2.18546631 20.64324463 -2.18538574 19.94078613 -2.18530273 19.21704102 C-2.18748743 17.07483 -2.20563512 14.93313529 -2.22460938 12.79101562 C-2.22754359 11.4348976 -2.2295282 10.07877712 -2.23046875 8.72265625 C-2.23457764 7.48265869 -2.23868652 6.24266113 -2.24291992 4.96508789 C-2 2 -2 2 0 0 Z " fill="#2DA8CF" transform="translate(958,779)"/>
<path d="M0 0 C1.32 0.33 2.64 0.66 4 1 C4 11.56 4 22.12 4 33 C2.35 33 0.7 33 -1 33 C-3.43016037 30.56983963 -2.17322555 24.74224869 -2.18554688 21.34570312 C-2.18546631 20.64324463 -2.18538574 19.94078613 -2.18530273 19.21704102 C-2.18748743 17.07483 -2.20563512 14.93313529 -2.22460938 12.79101562 C-2.22754359 11.4348976 -2.2295282 10.07877712 -2.23046875 8.72265625 C-2.23457764 7.48265869 -2.23868652 6.24266113 -2.24291992 4.96508789 C-2 2 -2 2 0 0 Z " fill="#2DA8CF" transform="translate(1218,779)"/>
<path d="M0 0 C1.17369141 -0.02513672 1.17369141 -0.02513672 2.37109375 -0.05078125 C5.08967962 0.39989341 5.95719356 1.09758351 7.5625 3.3125 C7.875 6.875 7.875 6.875 7.5625 10.3125 C5.5625 12.3125 5.5625 12.3125 2.99609375 12.54296875 C2.00738281 12.52878906 1.01867187 12.51460937 0 12.5 C-0.99128906 12.49355469 -1.98257813 12.48710938 -3.00390625 12.48046875 C-5.4375 12.3125 -5.4375 12.3125 -6.4375 11.3125 C-6.60546875 9.31640625 -6.60546875 9.31640625 -6.625 6.875 C-6.63917969 6.07191406 -6.65335938 5.26882813 -6.66796875 4.44140625 C-6.20637862 0.17756519 -3.70314341 0.01824209 0 0 Z " fill="#FAFDFF" transform="translate(899.4375,796.6875)"/>
<path d="M0 0 C2.54685809 0.0785782 3.81954973 0.17584047 6.0625 1.4375 C7.49981576 4.13246705 7.32327823 6.31355039 7.0625 9.3125 C6.0625 10.3125 6.0625 10.3125 3.59375 10.4453125 C2.09328125 10.44144531 2.09328125 10.44144531 0.5625 10.4375 C-0.4378125 10.44007813 -1.438125 10.44265625 -2.46875 10.4453125 C-4.9375 10.3125 -4.9375 10.3125 -5.9375 9.3125 C-6.125 5.875 -6.125 5.875 -5.9375 2.3125 C-3.9375 0.3125 -3.9375 0.3125 0 0 Z " fill="#FAFDFF" transform="translate(898.9375,782.6875)"/>
</svg>
