<svg width="271" height="180" viewBox="0 0 271 180" fill="none" xmlns="http://www.w3.org/2000/svg">
<g clip-path="url(#clip0_902_706)">
<path d="M137.287 50.5906C134.87 46.593 132.007 42.3248 127.523 41.0195C122.33 39.5079 116.995 42.5108 112.47 45.4741C98.9385 54.3363 85.9069 63.9404 73.4355 74.2424L73.4492 74.3975C83.1587 73.7278 92.8681 73.058 102.578 72.3883C109.593 71.9044 116.849 71.3537 123.048 68.0342C125.401 66.7746 127.694 65.092 130.359 64.9747C133.671 64.8291 136.559 67.1428 138.829 69.56C152.253 83.8589 156.137 105.725 171.198 118.288C161.701 94.8609 150.362 72.2241 137.287 50.5906Z" fill="#F2F2F2"/>
<path d="M219.803 171.871C218.318 169.996 217.712 169.557 216.247 167.665C204.324 152.24 193.118 136.293 182.627 119.826C175.502 108.643 168.73 97.2441 162.311 85.6308C159.255 80.1097 156.283 74.5452 153.394 68.9374C151.153 64.5893 148.962 60.2152 146.821 55.815C146.208 54.5583 145.613 53.2957 145.021 52.0303C143.626 49.0545 142.257 46.0643 140.787 43.1289C139.112 39.7833 137.073 36.2759 133.996 34.0282C132.596 32.9633 130.922 32.3189 129.17 32.1705C126.666 32.0087 124.355 33.043 122.183 34.1726C106.292 42.4615 91.4138 52.8537 77.9571 64.6789C64.4659 76.5306 52.407 89.9202 42.0262 104.575C41.7086 105.028 40.9576 104.595 41.2782 104.139C42.5404 102.353 43.8276 100.587 45.1399 98.8399C61.4569 77.1327 81.464 58.4658 104.247 43.6923C108.08 41.2076 111.985 38.8395 115.962 36.5879C117.966 35.4525 119.979 34.3315 122.027 33.2799C124.035 32.2485 126.166 31.3211 128.459 31.2864C136.264 31.1651 140.305 40.0058 143.08 45.9545C143.953 47.8266 144.835 49.693 145.729 51.5536C149.105 58.6175 152.612 65.6169 156.248 72.5517C158.492 76.8334 160.786 81.09 163.128 85.3216C170.418 98.4989 178.167 111.409 186.373 124.053C197.245 140.801 208.03 155.597 220.415 171.259C220.756 171.692 220.147 172.31 219.803 171.871Z" fill="#E4E4E4"/>
<path d="M77.1861 60.3141C76.7327 59.8085 76.2821 59.3029 75.8257 58.7973C72.2269 54.8161 68.3653 50.8811 63.4233 48.5987C61.0669 47.476 58.4946 46.8796 55.8847 46.8507C53.187 46.8594 50.55 47.5672 48.0574 48.5582C46.879 49.0291 45.7265 49.5636 44.5914 50.1328C43.2945 50.7857 42.0207 51.482 40.7529 52.1841C38.3728 53.5015 36.0236 54.8767 33.7054 56.3097C29.0926 59.1613 24.6244 62.2305 20.3006 65.5174C18.0592 67.2219 15.864 68.9824 13.7151 70.7987C11.7164 72.4859 9.75813 74.2184 7.84029 75.9962C7.43016 76.3747 6.8178 75.7622 7.22792 75.3837C7.73338 74.9128 8.24462 74.4448 8.75587 73.9825C10.2 72.6766 11.6673 71.3958 13.1577 70.14C15.8756 67.846 18.6638 65.6406 21.5223 63.5239C25.9675 60.2303 30.5657 57.1601 35.3169 54.3133C37.6912 52.8919 40.0981 51.5302 42.5377 50.2281C43.2744 49.8352 44.0196 49.451 44.7734 49.0869C46.4839 48.2239 48.2611 47.5002 50.0879 46.923C52.6756 46.0856 55.4134 45.8166 58.1146 46.1342C60.7226 46.5137 63.2353 47.3832 65.5203 48.6969C70.3726 51.4098 74.136 55.6048 77.7985 59.6987C78.1683 60.1147 77.5587 60.7301 77.1861 60.3141Z" fill="#E4E4E4"/>
<path d="M176.609 101.57L188.236 97.3159L194.01 95.2038C195.89 94.516 197.765 93.7329 199.709 93.2403C201.398 92.7577 203.192 92.7805 204.868 93.3061C206.363 93.8595 207.731 94.708 208.892 95.801C210.077 96.8931 211.18 98.0715 212.192 99.3265C213.449 100.837 214.687 102.364 215.931 103.886C221.065 110.166 226.165 116.473 231.232 122.808C236.298 129.143 241.331 135.504 246.33 141.893C251.341 148.297 256.317 154.728 261.259 161.185C261.865 161.976 262.47 162.768 263.074 163.56C263.408 163.997 264.161 163.566 263.822 163.122C258.844 156.6 253.83 150.104 248.783 143.635C243.722 137.15 238.627 130.693 233.497 124.263C228.366 117.834 223.201 111.432 218.002 105.059C216.707 103.471 215.409 101.885 214.109 100.3C213.013 98.9637 211.929 97.6128 210.727 96.3689C208.52 94.0855 205.762 92.0677 202.461 92.0129C200.52 91.9807 198.642 92.5967 196.839 93.2492C194.895 93.9527 192.956 94.6692 191.015 95.3795L179.306 99.6632L176.379 100.734C175.859 100.924 176.084 101.762 176.609 101.57Z" fill="#E4E4E4"/>
<path d="M61.893 53.6079C55.9842 50.5702 48.4171 51.1652 42.9873 54.9603C53.3442 56.7476 63.5878 59.1391 73.6657 62.1224C69.4807 59.6693 66.2071 55.8258 61.893 53.6079Z" fill="#F2F2F2"/>
<path d="M42.929 54.9502L41.7915 55.8751C42.1763 55.5514 42.5763 55.2479 42.9872 54.9607C42.9678 54.9573 42.9484 54.9535 42.929 54.9502Z" fill="#F2F2F2"/>
<path d="M208.454 101.612C207.309 100.219 206.072 98.7594 204.36 98.1934L202.761 98.2564C214.929 119.762 231.361 138.554 251.051 153.478C236.852 136.189 222.653 118.901 208.454 101.612Z" fill="#F2F2F2"/>
<path d="M109.061 90.1152C109.8 92.8033 111.467 95.143 113.765 96.7205C114.654 97.3256 115.705 97.9061 116.009 98.9375C116.169 99.5949 116.07 100.289 115.734 100.876C115.398 101.455 114.989 101.989 114.517 102.464L114.474 102.626C112.269 101.319 110.171 99.6654 108.953 97.4096C107.735 95.1538 107.565 92.1973 109.061 90.1152Z" fill="#F2F2F2"/>
<path d="M182.472 154.092C183.211 156.78 184.878 159.12 187.176 160.697C188.064 161.302 189.116 161.883 189.42 162.914C189.58 163.571 189.481 164.265 189.144 164.852C188.808 165.432 188.4 165.966 187.928 166.441L187.885 166.602C185.68 165.295 183.582 163.642 182.364 161.386C181.146 159.13 180.976 156.174 182.472 154.092Z" fill="#F2F2F2"/>
<path d="M35.965 149.68C36.7047 152.368 38.3711 154.707 40.6693 156.285C41.5579 156.89 42.6091 157.471 42.9131 158.502C43.073 159.159 42.9745 159.853 42.6379 160.44C42.3018 161.019 41.893 161.553 41.4213 162.029L41.3782 162.19C39.1733 160.883 37.0755 159.23 35.8575 156.974C34.6395 154.718 34.4695 151.762 35.965 149.68Z" fill="#F2F2F2"/>
<path d="M204.558 32.1458C213.432 32.1458 220.626 24.9497 220.626 16.0729C220.626 7.19608 213.432 0 204.558 0C195.683 0 188.489 7.19608 188.489 16.0729C188.489 24.9497 195.683 32.1458 204.558 32.1458Z" fill="#1A73E8"/>
<path d="M233.555 3.74096C225.767 2.68805 216.877 6.8984 214.858 14.4952C214.35 13.1444 213.425 11.9905 212.218 11.1999C211.01 10.4093 209.583 10.0232 208.142 10.0971C206.701 10.1711 205.321 10.7014 204.201 11.6114C203.081 12.5214 202.279 13.764 201.911 15.1597L202.803 15.7984C219.491 19.4083 236.766 19.3302 253.421 15.5695C248.004 9.87501 241.342 4.79386 233.555 3.74096Z" fill="#F0F0F0"/>
<path d="M200.158 25.1716C192.37 24.1187 183.48 28.3291 181.461 35.9258C180.953 34.5751 180.028 33.4211 178.82 32.6306C177.613 31.84 176.186 31.4538 174.745 31.5278C173.304 31.6018 171.924 32.1321 170.804 33.0421C169.683 33.9521 168.882 35.1947 168.514 36.5904L169.405 37.2291C186.094 40.839 203.369 40.7608 220.024 37.0002C214.607 31.3057 207.945 26.2245 200.158 25.1716Z" fill="#F0F0F0"/>
<path d="M268.127 29.2239C268.094 29.224 268.062 29.219 268.032 29.2092C184.725 2.85651 111.303 6.30258 64.3778 13.834C57.9918 14.8585 51.5888 16.0419 45.3465 17.3515C43.7528 17.6854 42.0995 18.0433 40.4325 18.416C38.4416 18.8595 36.4772 19.3163 34.5936 19.773C33.7801 19.9657 32.9824 20.1599 32.2007 20.3556C31.0166 20.648 29.8151 20.9527 28.5271 21.2875C27.0879 21.6587 25.6256 22.048 24.18 22.4447C24.1747 22.4466 24.1693 22.4481 24.1638 22.4493L24.164 22.4496C22.5311 22.8956 20.9069 23.3545 19.3361 23.8128C18.486 24.0584 17.6651 24.3006 16.8788 24.5397C16.791 24.564 16.7131 24.5874 16.6342 24.6114L16.4653 24.6628C16.3674 24.6927 16.2708 24.7219 16.1742 24.7496L16.1681 24.7514L16.1682 24.7518L15.9125 24.8312C15.6076 24.9235 15.3101 25.0137 15.0175 25.1036C7.28416 27.4881 3.03289 29.1846 2.99089 29.2012C2.95249 29.2166 2.91143 29.2243 2.87005 29.2238C2.82868 29.2233 2.78781 29.2147 2.74976 29.1984C2.71172 29.1821 2.67725 29.1585 2.64833 29.1289C2.61941 29.0993 2.5966 29.0643 2.58121 29.0259C2.56582 28.9875 2.55814 28.9464 2.55861 28.905C2.55909 28.8636 2.56771 28.8228 2.58398 28.7847C2.60025 28.7467 2.62385 28.7122 2.65344 28.6833C2.68303 28.6543 2.71803 28.6315 2.75644 28.6161C2.79874 28.5995 7.07078 26.8945 14.8323 24.5009C15.1259 24.4108 15.4242 24.3206 15.7301 24.228L15.9676 24.1541C15.9758 24.151 15.9839 24.1486 15.9922 24.1461C16.0884 24.1187 16.1844 24.0895 16.2819 24.0599L16.4511 24.0085C16.5354 23.983 16.6185 23.9577 16.7036 23.9343C17.4845 23.6967 18.3082 23.4539 19.1604 23.2074C20.7318 22.7488 22.3576 22.2899 23.9917 21.8434C23.9968 21.8415 24.002 21.8403 24.0071 21.8388C25.4578 21.4408 26.9255 21.0496 28.3693 20.6772C29.6592 20.3421 30.863 20.0368 32.0492 19.7438C32.8342 19.5483 33.6334 19.3537 34.4466 19.1599C36.3324 18.7026 38.3008 18.2452 40.2952 17.8008C41.9649 17.4278 43.621 17.069 45.2173 16.7347C51.4692 15.423 57.8823 14.2378 64.278 13.2117C111.27 5.66952 184.798 2.21788 268.221 28.6084C268.293 28.631 268.354 28.6786 268.394 28.7425C268.434 28.8064 268.449 28.8824 268.438 28.9568C268.426 29.0312 268.389 29.099 268.332 29.148C268.275 29.197 268.202 29.2239 268.127 29.2239Z" fill="#CCCCCC"/>
<path d="M82.8593 132.315C82.7502 131.996 82.5666 131.707 82.3237 131.473C82.234 131.39 82.137 131.315 82.0338 131.249C81.2115 130.701 79.9827 130.578 79.2013 131.249C79.1226 131.318 79.0499 131.393 78.9839 131.473C78.7508 131.76 78.5113 132.04 78.2656 132.315C77.8623 132.775 77.4496 133.219 77.0179 133.651C76.8951 133.771 76.7722 133.894 76.6461 134.013C76.5737 134.086 76.5012 134.155 76.4287 134.225C76.1515 134.489 75.8679 134.745 75.5812 134.997C75.43 135.132 75.2787 135.265 75.1244 135.394C74.8944 135.586 74.6644 135.778 74.4312 135.964C74.4092 135.98 74.3871 135.996 74.3651 136.015C74.3588 136.018 74.3556 136.024 74.3493 136.027C74.3461 136.027 74.343 136.027 74.3398 136.033C74.3313 136.037 74.3237 136.042 74.3178 136.049C74.2485 136.097 74.2012 136.128 74.1666 136.156C74.1792 136.15 74.1918 136.141 74.2044 136.134C74.1477 136.178 74.0878 136.223 74.0311 136.267C73.4797 136.673 72.9157 137.064 72.3392 137.43C70.9127 138.343 69.4143 139.139 67.8589 139.809C67.7549 139.85 67.6478 139.894 67.5407 139.935C63.4683 141.604 59.0507 142.255 54.6701 141.832C54.2227 141.798 53.7753 141.75 53.328 141.691C52.8112 141.615 52.2977 141.523 51.7873 141.419C49.8441 141.032 47.9428 140.458 46.1097 139.705C43.8167 138.655 41.6358 137.375 39.6004 135.885C39.2854 135.662 38.9671 135.438 38.6489 135.22C39.0113 134.332 39.3673 133.443 39.7139 132.548C39.8871 132.116 40.0541 131.684 40.218 131.249C41.5066 127.899 42.7165 124.518 43.8759 121.124C45.048 117.685 46.1539 114.227 47.1936 110.749C47.3007 110.396 47.4047 110.043 47.5055 109.69C48.0506 107.852 48.5736 106.011 49.0745 104.165C49.1218 103.985 49.1722 103.809 49.2163 103.629C49.3612 103.1 49.503 102.57 49.6417 102.041C49.9567 100.846 49.2447 99.4188 47.9907 99.132C47.3869 98.9772 46.7467 99.0628 46.2048 99.3709C45.6629 99.6789 45.2617 100.185 45.0858 100.783C44.9503 101.294 44.8148 101.801 44.6762 102.312C44.0114 104.78 43.3119 107.239 42.5778 109.69C42.4707 110.043 42.3636 110.396 42.2565 110.749C40.637 116.087 38.859 121.373 36.9224 126.604C36.6892 127.238 36.4529 127.869 36.2134 128.498C36.0969 128.807 35.9803 129.116 35.8606 129.425C35.6306 130.033 35.3943 130.641 35.158 131.249C35.0225 131.606 34.8839 131.962 34.7452 132.315C34.6539 132.538 34.5656 132.762 34.4774 132.983C33.5791 132.66 32.6484 132.436 31.7017 132.315L31.5504 132.296C30.8165 132.207 30.0742 132.214 29.3418 132.315C28.2457 132.443 27.1911 132.81 26.2525 133.39C25.3139 133.971 24.5142 134.751 23.91 135.674C22.4072 138.041 22.4261 141.426 24.5339 143.436C26.7047 145.507 29.9909 145.491 32.5461 144.196C33.9002 143.463 35.0419 142.393 35.8606 141.089C36.1742 140.616 36.4624 140.127 36.7239 139.623C36.79 139.667 36.8562 139.711 36.9224 139.759C37.1744 139.935 37.4265 140.115 37.6754 140.291C39.1256 141.342 40.6539 142.281 42.247 143.099C45.6724 144.803 49.3596 145.918 53.1547 146.399C53.2397 146.408 53.3217 146.421 53.4067 146.43C53.8258 146.484 54.248 146.525 54.6701 146.56C60.7264 147.016 66.7901 145.776 72.1816 142.98C72.6385 142.743 73.0911 142.495 73.5396 142.236C74.2359 141.832 74.9164 141.404 75.5812 140.95C75.9435 140.704 76.2964 140.455 76.6461 140.194C78.1744 139.068 79.5989 137.807 80.9027 136.427C81.3974 135.907 81.871 135.371 82.3237 134.817C82.7517 134.364 82.9984 133.77 83.0168 133.147C83.0144 132.862 82.961 132.58 82.8593 132.315ZM30.6872 139.822C30.7533 139.774 30.8195 139.724 30.8825 139.674C30.8636 139.721 30.7722 139.774 30.6872 139.822ZM31.6985 138.804C31.6261 138.886 31.5599 138.968 31.4874 139.05C31.267 139.296 31.0301 139.528 30.7785 139.743C30.7439 139.774 30.7061 139.806 30.6683 139.834C30.6678 139.834 30.6674 139.834 30.667 139.834C30.6667 139.835 30.6663 139.835 30.666 139.835C30.6657 139.835 30.6655 139.836 30.6653 139.836C30.6652 139.837 30.6651 139.837 30.6651 139.837C30.6196 139.858 30.5754 139.881 30.5328 139.907C30.3973 139.989 30.2587 140.064 30.1169 140.134C29.8393 140.236 29.5537 140.315 29.2631 140.37C29.0397 140.386 28.8156 140.388 28.592 140.376H28.5857C28.4313 140.342 28.2789 140.3 28.1288 140.25C28.0532 140.212 27.9807 140.168 27.9083 140.124C27.8799 140.099 27.8547 140.074 27.8389 140.058C27.8082 140.03 27.7797 139.999 27.7539 139.967C27.7539 139.966 27.7538 139.966 27.7537 139.965C27.7535 139.965 27.7533 139.965 27.753 139.964C27.7527 139.964 27.7523 139.964 27.752 139.964C27.7516 139.964 27.7512 139.963 27.7507 139.963C27.7161 139.9 27.6783 139.837 27.6436 139.774C27.6418 139.773 27.6407 139.771 27.6405 139.768C27.6153 139.689 27.5932 139.607 27.5743 139.525C27.5675 139.382 27.5685 139.237 27.5775 139.094C27.6197 138.892 27.6766 138.694 27.7476 138.501C27.8114 138.364 27.884 138.232 27.965 138.104C27.9713 138.091 28.0028 138.041 28.0375 137.984C28.0406 137.981 28.0406 137.981 28.0406 137.978C28.0879 137.924 28.1351 137.868 28.1855 137.817C28.2706 137.723 28.362 137.641 28.4533 137.556C28.631 137.439 28.8151 137.333 29.0047 137.237C29.3055 137.131 29.6141 137.047 29.9279 136.988C30.3905 136.952 30.8554 136.956 31.3173 137.001C31.7548 137.077 32.1864 137.183 32.6091 137.319C32.3529 137.817 32.0613 138.295 31.7364 138.75C31.7237 138.769 31.7111 138.788 31.6985 138.804ZM28.195 137.767C28.1672 137.811 28.1344 137.853 28.0973 137.89C28.1223 137.843 28.1554 137.802 28.195 137.767Z" fill="#3F3D56"/>
<path d="M73.3883 100.127C73.3599 101.117 73.3316 102.107 73.3032 103.096C73.2433 105.293 73.1814 107.49 73.1173 109.689C73.0511 112.163 72.9818 114.636 72.9094 117.108C72.8747 118.384 72.839 119.661 72.8022 120.937C72.7046 124.375 72.608 127.813 72.5124 131.249C72.5029 131.605 72.4903 131.958 72.4809 132.314C72.4336 134.019 72.3864 135.724 72.3391 137.429C72.2855 139.279 72.233 141.129 72.1816 142.979C72.1437 144.366 72.1049 145.753 72.065 147.142C71.7814 157.205 71.4979 167.268 71.2143 177.331C71.2023 177.954 70.9495 178.548 70.5089 178.989C70.0684 179.43 69.4743 179.682 68.8513 179.694C68.2261 179.689 67.628 179.439 67.186 178.997C66.7439 178.554 66.4933 177.956 66.4883 177.331C66.6458 171.671 66.8054 166.01 66.9672 160.35C67.109 155.232 67.2528 150.114 67.3988 144.996C67.4461 143.31 67.4933 141.623 67.5406 139.935C67.6131 137.394 67.6845 134.854 67.7549 132.314C67.7643 131.958 67.7769 131.605 67.7864 131.249C67.7927 130.937 67.8021 130.628 67.8116 130.316C67.9502 125.384 68.0888 120.451 68.2275 115.516C68.2842 113.575 68.3388 111.633 68.3913 109.689C68.4543 107.474 68.5173 105.259 68.5803 103.046C68.6087 102.072 68.6339 101.101 68.6622 100.127C68.6742 99.5042 68.927 98.9099 69.3676 98.4692C69.8082 98.0285 70.4023 97.7757 71.0253 97.7637C71.6504 97.7687 72.2485 98.0194 72.6906 98.4615C73.1327 98.9037 73.3832 99.502 73.3883 100.127Z" fill="#3F3D56"/>
<path d="M203.016 100.783C200.538 110.169 197.577 119.419 194.144 128.499C193.196 131.003 192.227 133.502 191.191 135.971L191.429 135.407C190.967 136.583 190.376 137.704 189.668 138.751C189.62 138.819 189.571 138.886 189.521 138.952C189.766 138.639 189.812 138.577 189.661 138.766C189.58 138.861 189.501 138.956 189.419 139.048C189.198 139.295 188.961 139.527 188.71 139.743C188.647 139.797 188.583 139.85 188.517 139.902L188.813 139.672C188.779 139.753 188.538 139.86 188.463 139.906C188.22 140.053 187.967 140.181 187.705 140.29L188.27 140.052C187.841 140.225 187.394 140.347 186.937 140.418L187.565 140.333C187.116 140.395 186.661 140.4 186.211 140.348L186.839 140.432C186.47 140.381 186.11 140.284 185.766 140.143L186.33 140.381C186.147 140.301 185.97 140.207 185.802 140.099C185.716 140.043 185.453 139.844 185.797 140.107C186.154 140.38 185.843 140.13 185.769 140.058C185.708 139.997 185.653 139.931 185.593 139.87C185.315 139.585 185.907 140.361 185.718 140.027C185.617 139.86 185.525 139.688 185.441 139.511L185.679 140.076C185.571 139.807 185.494 139.527 185.45 139.24L185.534 139.869C185.489 139.512 185.489 139.152 185.533 138.796L185.449 139.424C185.507 139.026 185.612 138.637 185.763 138.264L185.524 138.829C185.629 138.578 185.753 138.336 185.895 138.104C185.961 137.985 186.038 137.872 186.125 137.767C186.14 137.772 185.725 138.244 185.946 138.005C186.003 137.943 186.057 137.877 186.115 137.816C186.209 137.717 186.309 137.626 186.407 137.533C186.736 137.219 185.946 137.837 186.326 137.589C186.602 137.408 186.891 137.25 187.192 137.117L186.628 137.355C187.132 137.148 187.661 137.006 188.202 136.933L187.574 137.017C188.25 136.939 188.934 136.947 189.609 137.041L188.981 136.957C189.835 137.086 190.671 137.321 191.467 137.656L190.903 137.418C192.601 138.147 194.105 139.23 195.606 140.292C197.056 141.342 198.584 142.28 200.177 143.099C203.602 144.802 207.29 145.918 211.085 146.399C216.528 147.066 222.051 146.355 227.148 144.332C232.245 142.308 236.752 139.036 240.256 134.817C240.683 134.363 240.93 133.769 240.948 133.145C240.943 132.519 240.695 131.92 240.256 131.474C239.389 130.678 237.751 130.453 236.914 131.474C236.121 132.443 235.268 133.362 234.36 134.224C233.936 134.627 233.501 135.016 233.055 135.394C232.8 135.609 232.541 135.82 232.279 136.027C232.155 136.125 231.769 136.386 232.362 135.965C232.226 136.062 232.096 136.167 231.962 136.266C229.978 137.729 227.827 138.953 225.556 139.911L226.12 139.673C223.683 140.695 221.123 141.397 218.505 141.76L219.133 141.675C216.44 142.03 213.711 142.026 211.019 141.663L211.647 141.748C208.955 141.378 206.323 140.661 203.815 139.614L204.38 139.852C201.96 138.781 199.664 137.451 197.531 135.884C196.422 135.062 195.251 134.325 194.03 133.68C192.608 132.953 191.067 132.485 189.481 132.297C186.507 131.947 183.477 133.105 181.842 135.675C180.337 138.041 180.357 141.425 182.464 143.436C184.634 145.507 187.92 145.49 190.478 144.194C192.941 142.946 194.42 140.354 195.461 137.91C197.802 132.408 199.875 126.78 201.806 121.123C203.717 115.527 205.449 109.874 207.004 104.164C207.197 103.457 207.386 102.749 207.573 102.04C207.889 100.846 207.176 99.4181 205.923 99.1326C205.319 98.9771 204.678 99.0623 204.136 99.3703C203.594 99.6783 203.192 100.185 203.016 100.783Z" fill="#3F3D56"/>
<path d="M226.594 100.127L225.743 130.317L224.897 160.349L224.419 177.331C224.424 177.956 224.675 178.554 225.117 178.997C225.559 179.439 226.157 179.689 226.782 179.695C227.405 179.683 227.999 179.43 228.439 178.989C228.88 178.548 229.133 177.954 229.145 177.331L229.995 147.141L230.841 117.109L231.32 100.127C231.314 99.5021 231.064 98.904 230.622 98.4619C230.18 98.0197 229.582 97.769 228.957 97.7637C228.334 97.7757 227.74 98.0286 227.299 98.4693C226.859 98.91 226.606 99.5042 226.594 100.127Z" fill="#3F3D56"/>
<path opacity="0.2" d="M144.803 168.903H145.536V135.483H162.654V134.751H145.536V120.65H158.755C158.561 120.403 158.362 120.16 158.157 119.92H145.536V110.606C145.294 110.502 145.049 110.403 144.803 110.309V119.92H130.419V107.986C130.173 107.998 129.93 108.015 129.685 108.035V119.92H118.211V111.016C117.964 111.125 117.721 111.24 117.481 111.361V119.92H107.834V120.65H117.481V134.751H107.834V135.483H117.481V168.903H118.211V135.483C119.718 135.483 121.21 135.78 122.602 136.356C123.994 136.933 125.26 137.779 126.325 138.845C127.391 139.91 128.236 141.176 128.812 142.569C129.389 143.961 129.686 145.454 129.685 146.961V168.903H130.419V135.483H144.803V168.903ZM118.211 134.751V120.65H129.685V134.751H118.211ZM130.419 134.751V120.65H130.707C132.558 120.65 134.391 121.015 136.101 121.724C137.812 122.432 139.366 123.471 140.674 124.781C141.983 126.09 143.022 127.644 143.73 129.355C144.438 131.066 144.803 132.9 144.803 134.751H130.419Z" fill="black"/>
<path d="M140.321 158.882C139.398 163.004 137.185 166.724 134.004 169.503C133.771 169.705 133.538 169.9 133.295 170.092C132.706 170.146 132.121 170.2 131.541 170.256C131.058 170.3 130.583 170.347 130.11 170.392L130.025 170.401L129.965 169.884L129.726 167.792C128.797 166.275 128.221 164.568 128.041 162.798C127.861 161.029 128.082 159.241 128.686 157.568C129.518 155.324 131.024 153.342 132.505 151.375C134.549 148.659 136.538 145.973 136.61 142.661C137.616 143.949 138.453 145.361 139.099 146.862C138.489 147.149 137.941 147.553 137.486 148.05C137.357 148.192 137.228 148.391 137.316 148.561C137.391 148.706 137.58 148.74 137.744 148.759C138.138 148.8 138.535 148.841 138.929 148.882C139.244 148.917 139.559 148.948 139.874 148.983C140.255 150.235 140.514 151.52 140.646 152.822C140.858 154.846 140.749 156.892 140.321 158.882Z" fill="#3F3D56"/>
<path d="M150.782 150.622C148.923 151.974 147.836 153.918 146.992 156.061C146.126 156.338 145.348 156.836 144.733 157.505C144.603 157.646 144.474 157.845 144.562 158.015C144.638 158.16 144.827 158.195 144.991 158.214C145.385 158.255 145.782 158.296 146.176 158.337C145.331 160.87 144.556 163.493 143.063 165.632C142.07 167.045 140.775 168.22 139.272 169.071C138.863 169.304 138.44 169.514 138.006 169.698C136.405 169.821 134.835 169.952 133.296 170.092C132.706 170.145 132.121 170.2 131.541 170.256C131.059 170.3 130.583 170.347 130.11 170.391C130.107 170.218 130.107 170.045 130.11 169.871C130.21 165.254 131.908 160.814 134.915 157.309C135.057 157.145 135.202 156.985 135.35 156.824C136.873 155.196 138.665 153.842 140.646 152.821C143.768 151.198 147.268 150.438 150.782 150.622Z" fill="#1A73E8"/>
<path d="M132.086 168.639L131.723 169.71L131.541 170.256C131.059 170.3 130.583 170.347 130.11 170.391L130.025 170.401C129.502 170.454 128.982 170.508 128.462 170.561C128.327 170.404 128.191 170.243 128.059 170.079C124.771 166.096 123.192 160.972 123.668 155.828C124.145 150.684 126.637 145.937 130.602 142.626C130.186 144.804 130.671 146.89 131.468 148.961C131.383 148.995 131.301 149.03 131.222 149.068C130.613 149.355 130.065 149.759 129.609 150.256C129.48 150.398 129.351 150.596 129.439 150.766C129.515 150.911 129.704 150.946 129.868 150.965C130.261 151.006 130.658 151.047 131.052 151.088C131.367 151.123 131.682 151.154 131.997 151.189C132.146 151.204 132.294 151.22 132.442 151.236C132.464 151.283 132.483 151.327 132.505 151.375C133.403 153.322 134.37 155.279 134.915 157.309C135.052 157.818 135.159 158.335 135.236 158.856C135.479 160.619 135.322 162.414 134.776 164.107C134.231 165.801 133.311 167.349 132.086 168.639Z" fill="#1A73E8"/>
<path d="M163.8 122.929C161.087 117.637 156.885 113.185 151.943 109.912C146.985 106.645 141.296 104.655 135.382 104.12C134.607 104.049 133.83 104.008 133.051 103.996C132.131 103.982 118.285 107.977 113.647 111.239C109.011 114.461 105.198 118.728 102.515 123.696C99.836 128.691 98.5184 134.303 98.6943 139.969C98.9239 145.668 100.512 151.23 103.327 156.192C106.103 161.137 110.044 165.328 114.809 168.402C119.642 171.487 124.496 179.665 130.202 179.953C135.95 180.244 142.506 172.53 147.749 170.188C152.992 167.826 157.525 164.131 160.896 159.471C164.171 154.904 166.29 149.611 167.071 144.045C167.882 138.346 167.504 132.468 165.558 127.021C165.059 125.622 164.471 124.255 163.8 122.929C163.239 121.825 161.596 121.418 160.567 122.082C160.037 122.408 159.653 122.926 159.495 123.529C159.337 124.131 159.417 124.771 159.719 125.315C160.048 125.964 160.354 126.624 160.638 127.294L160.399 126.729C161.471 129.306 162.199 132.012 162.566 134.778L162.481 134.149C162.872 137.15 162.865 140.19 162.461 143.189L162.545 142.56C162.137 145.559 161.336 148.492 160.165 151.282L160.403 150.717C159.8 152.141 159.098 153.521 158.301 154.845C157.897 155.515 157.469 156.168 157.015 156.806C156.816 157.086 156.611 157.361 156.404 157.635C156.135 157.993 156.772 157.168 156.493 157.519C156.446 157.579 156.399 157.639 156.351 157.698C156.208 157.877 156.063 158.055 155.916 158.23C154.933 159.403 153.861 160.497 152.709 161.503C152.422 161.753 152.131 161.998 151.834 162.237C151.687 162.357 151.541 162.481 151.387 162.592C151.392 162.588 151.884 162.214 151.593 162.431C151.502 162.499 151.411 162.568 151.319 162.636C150.708 163.089 150.08 163.519 149.437 163.926C147.955 164.86 146.4 165.673 144.788 166.357L145.352 166.118C142.571 167.29 139.647 168.09 136.657 168.498L137.286 168.414C134.297 168.818 131.268 168.823 128.278 168.43L128.906 168.514C126.189 168.149 123.531 167.43 121 166.376L121.564 166.614C120.098 165.995 118.684 165.258 117.337 164.411C116.67 163.991 116.021 163.545 115.389 163.073C115.299 163.005 115.209 162.937 115.119 162.869C114.831 162.651 115.327 163.03 115.331 163.032C115.163 162.912 115.001 162.783 114.847 162.646C114.542 162.398 114.241 162.143 113.945 161.883C112.762 160.841 111.657 159.713 110.639 158.508C110.385 158.207 110.135 157.901 109.891 157.591C109.786 157.456 109.593 157.184 110.019 157.757C109.963 157.682 109.905 157.608 109.848 157.533C109.712 157.353 109.578 157.171 109.446 156.988C108.983 156.348 108.544 155.692 108.127 155.02C107.185 153.499 106.362 151.907 105.667 150.258L105.906 150.823C104.769 148.117 103.991 145.274 103.593 142.365L103.677 142.994C103.318 140.313 103.313 137.597 103.662 134.914L103.578 135.543C103.936 132.945 104.634 130.407 105.655 127.992L105.417 128.557C106.06 127.045 106.818 125.585 107.684 124.19C108.118 123.491 108.578 122.81 109.063 122.146C109.174 121.995 109.285 121.845 109.398 121.696C109.5 121.561 109.781 121.225 109.302 121.818C109.349 121.76 109.394 121.7 109.44 121.642C109.707 121.304 109.98 120.972 110.259 120.644C111.317 119.406 112.463 118.245 113.688 117.171C113.998 116.9 114.313 116.634 114.632 116.374C114.777 116.256 114.923 116.139 115.07 116.023C115.129 115.977 115.189 115.932 115.247 115.885C114.618 116.386 115.072 116.021 115.215 115.914C115.873 115.421 116.549 114.952 117.243 114.508C118.784 113.522 120.406 112.668 122.091 111.953L121.526 112.191C123.971 111.165 134.803 108.741 136.773 109.005L136.145 108.921C139.041 109.325 141.871 110.107 144.564 111.247L143.999 111.009C145.364 111.589 146.69 112.255 147.969 113.004C148.609 113.379 149.235 113.774 149.849 114.19C150.14 114.386 150.428 114.588 150.712 114.793C150.854 114.896 150.996 115 151.136 115.105C151.214 115.163 151.292 115.222 151.37 115.281C151.697 115.526 150.919 114.925 151.262 115.197C152.411 116.099 153.502 117.073 154.529 118.113C155.033 118.627 155.52 119.157 155.99 119.703C156.23 119.983 156.466 120.268 156.697 120.556C156.812 120.7 157.203 121.218 156.724 120.583C156.841 120.738 156.959 120.892 157.075 121.049C158.071 122.397 158.955 123.824 159.719 125.315C160.284 126.418 161.92 126.829 162.952 126.163C163.482 125.837 163.866 125.319 164.024 124.716C164.182 124.114 164.102 123.474 163.8 122.929Z" fill="#3F3D56"/>
<path d="M136.266 161.502C136.022 161.514 135.781 161.449 135.574 161.319C135.368 161.188 135.207 160.997 135.113 160.772C135.018 160.547 134.996 160.298 135.048 160.059C135.1 159.82 135.224 159.603 135.403 159.438C135.433 159.318 135.454 159.233 135.484 159.113C135.474 159.087 135.463 159.061 135.452 159.035C134.356 156.42 127.359 163.71 127.057 166.168C126.924 167.254 126.98 168.355 127.223 169.423C124.957 164.478 123.78 159.103 123.773 153.664C123.772 152.299 123.848 150.935 124 149.578C124.125 148.466 124.299 147.362 124.522 146.266C125.736 140.318 128.344 134.743 132.131 129.999C134.297 130.12 136.195 129.79 136.378 125.591C136.411 124.844 136.964 124.198 137.086 123.462C136.88 123.489 136.67 123.506 136.463 123.52C136.398 123.523 136.331 123.527 136.266 123.53L136.242 123.531C136.015 123.541 135.789 123.485 135.593 123.371C135.397 123.256 135.238 123.086 135.135 122.883C135.033 122.68 134.992 122.452 135.016 122.225C135.04 121.999 135.13 121.785 135.273 121.608C135.362 121.498 135.451 121.388 135.541 121.279C135.676 121.109 135.815 120.943 135.951 120.774C135.967 120.757 135.981 120.74 135.995 120.723C136.151 120.529 136.307 120.34 136.463 120.146C136.178 119.704 135.795 119.334 135.344 119.065C133.782 118.149 131.626 118.783 130.497 120.197C129.365 121.611 129.152 123.594 129.545 125.361C129.932 126.864 130.571 128.29 131.436 129.578C131.351 129.687 131.263 129.792 131.179 129.901C129.63 131.893 128.28 134.032 127.148 136.288C127.468 133.786 123.552 124.751 122.038 122.837C120.219 120.538 116.489 121.542 116.169 124.456C116.166 124.484 116.163 124.512 116.16 124.54C116.385 124.667 116.605 124.802 116.82 124.944C117.091 125.125 117.301 125.384 117.422 125.686C117.543 125.988 117.57 126.32 117.5 126.637C117.43 126.955 117.265 127.244 117.027 127.467C116.79 127.69 116.491 127.835 116.169 127.885L116.136 127.89C113.125 132.19 122.777 143.381 125.193 140.868C124.056 144.092 123.342 147.449 123.071 150.857C122.917 152.867 122.926 154.886 123.098 156.895L123.088 156.824C122.551 152.449 113.342 145.944 110.653 146.486C109.104 146.798 107.578 146.727 107.814 148.29C107.817 148.315 107.821 148.34 107.825 148.365C108.242 148.535 108.649 148.731 109.042 148.951C109.267 149.078 109.487 149.213 109.702 149.355C109.973 149.536 110.183 149.795 110.304 150.097C110.425 150.399 110.453 150.731 110.382 151.048C110.312 151.366 110.147 151.655 109.909 151.878C109.672 152.101 109.373 152.246 109.051 152.296L109.018 152.301C108.994 152.304 108.974 152.308 108.95 152.311C107.58 157.028 117.743 164.64 123.922 162.218H123.925C124.537 164.879 125.425 167.47 126.572 169.948H136.029C136.063 169.843 136.093 169.734 136.124 169.629C135.249 169.684 134.37 169.632 133.507 169.473C134.209 168.612 134.91 167.744 135.612 166.883C135.628 166.867 135.642 166.85 135.656 166.832C136.012 166.392 136.371 165.954 136.727 165.513L136.727 165.513C136.746 164.162 136.591 162.814 136.266 161.503L136.266 161.502ZM125.437 140.194L125.442 140.187L125.437 140.201V140.194ZM123.342 159.082L123.261 158.899C123.264 158.766 123.264 158.634 123.261 158.499C123.261 158.461 123.254 158.424 123.254 158.387C123.284 158.621 123.312 158.855 123.345 159.089L123.342 159.082Z" fill="#3F3D56"/>
<path d="M30.0097 141.82C31.9238 141.82 33.4754 140.268 33.4754 138.353C33.4754 136.439 31.9238 134.887 30.0097 134.887C28.0956 134.887 26.5439 136.439 26.5439 138.353C26.5439 140.268 28.0956 141.82 30.0097 141.82Z" fill="#3F3D56"/>
<path d="M71.5988 179.638C73.5129 179.638 75.0646 178.086 75.0646 176.172C75.0646 174.257 73.5129 172.705 71.5988 172.705C69.6847 172.705 68.1331 174.257 68.1331 176.172C68.1331 178.086 69.6847 179.638 71.5988 179.638Z" fill="#3F3D56"/>
<path d="M229.448 179.638C231.362 179.638 232.914 178.086 232.914 176.172C232.914 174.257 231.362 172.705 229.448 172.705C227.534 172.705 225.982 174.257 225.982 176.172C225.982 178.086 227.534 179.638 229.448 179.638Z" fill="#3F3D56"/>
<path d="M237.955 135.516C239.869 135.516 241.421 133.964 241.421 132.05C241.421 130.135 239.869 128.583 237.955 128.583C236.041 128.583 234.489 130.135 234.489 132.05C234.489 133.964 236.041 135.516 237.955 135.516Z" fill="#3F3D56"/>
<path d="M227.873 103.371C229.787 103.371 231.338 101.819 231.338 99.9042C231.338 97.9896 229.787 96.4375 227.873 96.4375C225.959 96.4375 224.407 97.9896 224.407 99.9042C224.407 101.819 225.959 103.371 227.873 103.371Z" fill="#3F3D56"/>
<path d="M83.2563 132.05C83.2542 132.935 82.9119 133.786 82.3001 134.426C81.6883 135.066 80.854 135.446 79.9697 135.488C79.0854 135.53 78.2188 135.23 77.5494 134.651C76.8799 134.071 76.4588 133.257 76.3731 132.375C76.2875 131.494 76.5438 130.613 77.0892 129.916C77.6345 129.218 78.4271 128.757 79.3029 128.628C80.1787 128.499 81.0706 128.711 81.7942 129.221C82.5178 129.731 83.0176 130.5 83.1901 131.369C83.2346 131.593 83.2567 131.821 83.2563 132.05Z" fill="#3F3D56"/>
<path d="M152.571 113.456C154.486 113.456 156.037 111.904 156.037 109.989C156.037 108.075 154.486 106.522 152.571 106.522C150.657 106.522 149.106 108.075 149.106 109.989C149.106 111.904 150.657 113.456 152.571 113.456Z" fill="#3F3D56"/>
<path d="M118.229 109.989C118.227 110.875 117.885 111.725 117.273 112.365C116.661 113.006 115.827 113.386 114.942 113.428C114.058 113.47 113.192 113.17 112.522 112.59C111.853 112.011 111.431 111.196 111.346 110.315C111.26 109.433 111.516 108.553 112.062 107.855C112.607 107.158 113.4 106.697 114.276 106.567C115.151 106.438 116.043 106.65 116.767 107.161C117.49 107.671 117.99 108.44 118.163 109.308C118.207 109.532 118.229 109.76 118.229 109.989Z" fill="#3F3D56"/>
<path d="M73.4892 99.9041C73.4871 100.79 73.1448 101.64 72.533 102.28C71.9212 102.921 71.0869 103.301 70.2026 103.343C69.3183 103.385 68.4518 103.085 67.7823 102.505C67.1128 101.926 66.6917 101.111 66.606 100.23C66.5204 99.3485 66.7767 98.4679 67.3221 97.7703C67.8674 97.0728 68.66 96.6116 69.5358 96.4823C70.4116 96.353 71.3036 96.5654 72.0271 97.0756C72.7507 97.5859 73.2505 98.3548 73.423 99.2233C73.4675 99.4475 73.4897 99.6755 73.4892 99.9041Z" fill="#3F3D56"/>
<path d="M188.804 143.08C190.718 143.08 192.27 141.528 192.27 139.613C192.27 137.699 190.718 136.146 188.804 136.146C186.89 136.146 185.338 137.699 185.338 139.613C185.338 141.528 186.89 143.08 188.804 143.08Z" fill="#3F3D56"/>
<path d="M134.297 111.564C137.082 111.564 139.339 109.307 139.339 106.522C139.339 103.737 137.082 101.479 134.297 101.479C131.513 101.479 129.256 103.737 129.256 106.522C129.256 109.307 131.513 111.564 134.297 111.564Z" fill="#3F3D56"/>
<path d="M270.625 179.903L0.375143 180C0.325879 180 0.277095 179.99 0.23158 179.971C0.186065 179.952 0.144712 179.925 0.109877 179.89C0.0750413 179.855 0.0474049 179.814 0.0285521 179.768C0.00969926 179.723 0 179.674 0 179.624C0 179.575 0.00969926 179.526 0.0285521 179.481C0.0474049 179.435 0.0750413 179.394 0.109877 179.359C0.144712 179.324 0.186065 179.297 0.23158 179.278C0.277095 179.259 0.325879 179.249 0.375143 179.249L270.625 179.152C270.724 179.153 270.819 179.192 270.889 179.263C270.96 179.333 270.999 179.428 270.999 179.528C270.999 179.627 270.96 179.722 270.889 179.793C270.819 179.863 270.724 179.903 270.625 179.903Z" fill="#CACACA"/>
</g>
<defs>
<clipPath id="clip0_902_706">
<rect width="271" height="180" fill="white"/>
</clipPath>
</defs>
</svg>
